<svg width="478" height="439" viewBox="0 0 478 439" fill="none" xmlns="http://www.w3.org/2000/svg">
<rect width="478" height="439" fill="url(#paint0_linear)"/>
<g clip-path="url(#clip0)">
<path opacity="0.1" d="M255.629 209.726C238.899 209.753 222.796 204.199 207.394 198.03C191.991 191.86 176.707 184.952 160.289 182.024C149.729 180.142 137.722 180.315 129.468 187.148C121.523 193.721 119.222 204.6 118.112 214.651C117.277 222.212 116.892 230.148 120.019 237.064C122.19 241.866 125.905 245.823 128.523 250.399C137.664 266.318 132.167 286.653 123.284 302.941C119.119 310.584 114.24 317.909 111.091 325.989C107.942 334.069 106.65 343.231 109.862 351.206C113.045 359.111 120.233 364.848 127.948 368.766C143.615 376.738 161.855 378.447 179.606 379.105C218.898 380.565 258.266 377.588 297.529 374.61C312.058 373.51 326.653 372.401 340.883 369.211C348.783 367.442 356.919 364.816 362.521 359.061C369.631 351.754 371.086 339.824 365.911 331.249C357.234 316.866 334.354 314.153 328.132 298.591C324.701 290.023 327.66 280.198 332.018 271.94C341.364 254.22 357.451 238.348 357.722 218.53C357.908 204.92 349.542 191.643 337.047 185.727C323.949 179.532 306.092 181.125 296.915 192.673C287.48 204.569 270.401 209.708 255.629 209.726Z" fill="#2477A6"/>
<path d="M330.138 350.138C330.138 350.138 327.387 348.012 324.661 349.524C324.661 349.524 325.5 351.417 328.952 351.238L330.138 350.138Z" fill="#2477A6"/>
<path d="M330.487 350.25C330.487 350.25 331.324 353.982 329.225 356.522C329.225 356.522 327.962 354.983 329.225 351.215L330.487 350.25Z" fill="#2477A6"/>
<path d="M333.907 346.668C333.907 346.668 333.703 343.494 327.582 344.547C327.582 344.547 327.553 346.594 329.701 347.564C331.85 348.534 332.835 347.716 333.907 346.668Z" fill="#2477A6"/>
<path d="M334.292 346.647C334.292 346.647 336.879 347.619 334.571 354.341C334.571 354.341 332.864 353.896 332.557 351.22C332.25 348.544 333.159 347.622 334.292 346.647Z" fill="#2477A6"/>
<path d="M337.747 342.144C337.747 342.144 338.099 336.921 331.843 337.455C331.843 337.455 331.396 342.173 336.644 343.399L337.747 342.144Z" fill="#2477A6"/>
<path d="M341.881 336.247C341.881 336.247 341.024 330.327 334.771 332.091C334.771 332.091 334.748 337.209 340.86 337.657L341.881 336.247Z" fill="#2477A6"/>
<path d="M344.902 330.151C344.902 330.151 343.466 324.385 337.271 326.11C337.271 326.11 338.745 331.296 344.491 331.215L344.902 330.151Z" fill="#2477A6"/>
<path d="M347.772 324.197C347.772 324.197 346.368 318.213 340.386 320.003C340.386 320.003 342.382 325.688 347.375 325.208L347.772 324.197Z" fill="#2477A6"/>
<path d="M349.62 318.541C349.62 318.541 348.542 311.224 342.964 312.843C342.964 312.843 344.585 319.5 349.211 319.608L349.62 318.541Z" fill="#2477A6"/>
<path d="M351.355 311.708C351.355 311.708 350.059 304.333 344.417 306.467C344.417 306.467 346.628 313.438 350.954 312.717L351.355 311.708Z" fill="#2477A6"/>
<path d="M352.42 305.35C352.42 305.35 350.363 297.973 346.001 298.172C346.001 298.172 348.103 305.964 352.055 306.821L352.42 305.35Z" fill="#2477A6"/>
<path d="M353.109 299.144C353.109 299.144 350.871 290.265 347.322 290.949C347.322 290.949 348.871 297.737 352.984 300.528L353.109 299.144Z" fill="#2477A6"/>
<path d="M353.499 291.74C353.499 291.74 351.4 284.342 347.904 284.046C347.904 284.046 349.332 291.326 353.43 293.664L353.499 291.74Z" fill="#2477A6"/>
<path d="M353.922 284.832C353.922 284.832 351.306 277.425 348.998 277.258C348.998 277.258 350.135 284.551 353.698 286.048L353.922 284.832Z" fill="#2477A6"/>
<path d="M354.211 278.406C354.211 278.406 352.601 270.362 350.289 269.694C350.289 269.694 350.605 276.275 353.978 279.008L354.211 278.406Z" fill="#2477A6"/>
<path d="M355.084 269.987C355.084 269.987 353.392 263.574 351.518 262.597C351.518 262.597 351.887 270.158 354.652 271.555L355.084 269.987Z" fill="#2477A6"/>
<path d="M355.806 264.484L356.147 253.178C356.147 253.178 352.644 261.7 355.554 266.468L355.806 264.484Z" fill="#2477A6"/>
<path d="M358.51 253.238C358.51 253.238 361.032 244.982 361.643 244.521C361.643 244.521 356.697 249.878 357.181 256.768L358.51 253.238Z" fill="#2477A6"/>
<path d="M337.917 342.105C337.917 342.105 342.353 341.426 342.221 348.767C342.221 348.767 338.213 349.532 336.903 343.46L337.917 342.105Z" fill="#2477A6"/>
<path d="M342.091 336.048C342.091 336.048 347.217 336.03 346.791 343.544C346.791 343.544 342.488 344.445 341.069 337.468L342.091 336.048Z" fill="#2477A6"/>
<path d="M344.952 330.636C344.952 330.636 349.605 328.081 352.581 334.677C352.581 334.677 348.284 336.805 344.54 331.703L344.952 330.636Z" fill="#2477A6"/>
<path d="M347.875 324.252C347.875 324.252 352.639 321.534 355.437 327.976C355.437 327.976 350.473 329.978 347.481 325.271L347.875 324.252Z" fill="#2477A6"/>
<path d="M349.56 318.701C349.56 318.701 354.146 313.572 357.805 318.758C357.805 318.758 353.121 322.981 349.35 319.843L349.56 318.701Z" fill="#2477A6"/>
<path d="M351.095 311.533C351.095 311.533 355.708 306.291 359.338 311.774C359.338 311.774 354.161 316.08 350.93 312.634L351.095 311.533Z" fill="#2477A6"/>
<path d="M351.957 305.141C351.957 305.141 355.511 298.589 359.696 300.051C359.696 300.051 356.008 306.988 351.997 306.679L351.957 305.141Z" fill="#2477A6"/>
<path d="M353.004 299.102C353.004 299.102 356.585 290.852 359.974 292.288C359.974 292.288 357.391 298.63 352.913 300.494L353.004 299.102Z" fill="#2477A6"/>
<path d="M353.253 291.311C353.253 291.311 356.934 284.816 360.383 285.61C360.383 285.61 357.373 292.196 352.895 293.19L353.253 291.311Z" fill="#2477A6"/>
<path d="M353.539 284.688C353.539 284.688 356.393 277.399 358.711 277.349C358.711 277.349 357.342 284.585 353.732 285.925L353.539 284.688Z" fill="#2477A6"/>
<path d="M354.099 278.248C354.099 278.248 357.27 270.868 359.654 270.852C359.654 270.852 358.031 277.163 354.204 278.896L354.099 278.248Z" fill="#2477A6"/>
<path d="M354.575 270.449C354.575 270.449 356.948 264.342 358.913 263.65C358.913 263.65 357.727 271.093 354.837 272.068L354.575 270.449Z" fill="#2477A6"/>
<path d="M356.088 264.261L361.39 254.802C361.39 254.802 360.032 264.133 355.314 266.072L356.088 264.261Z" fill="#2477A6"/>
<path d="M359.728 254C359.728 254 365.889 249.021 366.113 248.216C366.113 248.216 362.98 255.19 357.16 256.422L359.728 254Z" fill="#2477A6"/>
<path d="M360.097 251.76C360.097 251.76 367.171 243.795 368.978 243.803C368.978 243.803 363.143 244.115 359.927 251.335L360.097 251.76Z" fill="#2477A6"/>
<path d="M354.645 271.631L354.902 271.67C356.232 259.486 358.17 252.276 360.359 251.393L360.274 251.104C357.953 252.048 356.001 259.148 354.645 271.631Z" fill="#444053"/>
<path d="M352.689 300.769L353.078 300.806C353.161 299.668 353.224 298.505 353.266 297.344C353.638 287.259 354.213 277.997 354.969 271.054L354.746 270.727C353.987 277.685 353.248 287.225 352.877 297.325C352.834 298.478 352.772 299.637 352.689 300.769Z" fill="#444053"/>
<path d="M322.877 355.951C322.944 355.916 329.8 352.331 336.915 343.782C341.083 338.775 344.547 333.025 347.176 326.747C350.466 318.903 352.472 309.263 353.143 299.899L352.738 300.122C351.227 321.141 343.056 335.503 336.559 343.326C329.513 351.799 322.734 355.348 322.667 355.382L322.877 355.951Z" fill="#444053"/>
<path d="M340.628 203.337H125.574C125.065 203.337 124.578 203.574 124.219 203.994C123.86 204.415 123.658 204.986 123.658 205.581V212.117H342.543V205.581C342.543 204.986 342.342 204.415 341.982 203.994C341.623 203.574 341.136 203.337 340.628 203.337V203.337Z" fill="#3F3D56"/>
<path d="M123.658 212.117V359.208C123.658 360.408 124.065 361.559 124.789 362.407C125.514 363.255 126.496 363.732 127.521 363.732H338.681C339.705 363.732 340.688 363.255 341.412 362.407C342.136 361.559 342.543 360.408 342.543 359.208V212.117H123.658Z" fill="white"/>
<path opacity="0.8" d="M127.125 208.71C127.619 208.71 128.02 208.241 128.02 207.662C128.02 207.083 127.619 206.613 127.125 206.613C126.63 206.613 126.229 207.083 126.229 207.662C126.229 208.241 126.63 208.71 127.125 208.71Z" fill="#FA5959"/>
<path opacity="0.8" d="M129.586 208.71C130.081 208.71 130.482 208.241 130.482 207.662C130.482 207.083 130.081 206.613 129.586 206.613C129.092 206.613 128.691 207.083 128.691 207.662C128.691 208.241 129.092 208.71 129.586 208.71Z" fill="#FED253"/>
<path opacity="0.8" d="M132.048 208.71C132.543 208.71 132.944 208.241 132.944 207.662C132.944 207.083 132.543 206.613 132.048 206.613C131.554 206.613 131.153 207.083 131.153 207.662C131.153 208.241 131.554 208.71 132.048 208.71Z" fill="#8CCF4D"/>
<path opacity="0.05" d="M319.919 236.643H144.004V327.224H319.919V236.643Z" fill="black"/>
<path d="M318.576 237.329H145.347V325.913H318.576V237.329Z" fill="#3F3D56"/>
<path d="M192.571 260.128C189.162 260.128 185.831 261.312 182.997 263.529C180.163 265.746 177.954 268.898 176.649 272.586C175.345 276.273 175.004 280.331 175.669 284.245C176.334 288.16 177.975 291.756 180.385 294.578C182.795 297.4 185.866 299.322 189.209 300.101C192.552 300.88 196.017 300.48 199.166 298.953C202.315 297.425 205.006 294.839 206.9 291.52C208.794 288.201 209.804 284.3 209.804 280.308C209.804 277.658 209.359 275.034 208.492 272.586C207.626 270.137 206.357 267.913 204.757 266.039C203.156 264.165 201.257 262.678 199.166 261.664C197.075 260.65 194.834 260.128 192.571 260.128V260.128ZM195.662 280.793V290.349H189.57V280.793C188.727 280.046 188.105 279.007 187.793 277.824C187.481 276.641 187.495 275.373 187.831 274.2C188.168 273.026 188.811 272.006 189.669 271.283C190.528 270.56 191.558 270.171 192.616 270.171C193.673 270.171 194.704 270.56 195.562 271.283C196.421 272.006 197.063 273.026 197.4 274.2C197.737 275.373 197.75 276.641 197.438 277.824C197.126 279.007 196.505 280.046 195.662 280.793V280.793Z" fill="#2477A6"/>
<path opacity="0.05" d="M192.571 260.128C189.162 260.128 185.831 261.312 182.997 263.529C180.163 265.746 177.954 268.898 176.649 272.586C175.345 276.273 175.004 280.331 175.669 284.245C176.334 288.16 177.975 291.756 180.385 294.578C182.795 297.4 185.866 299.322 189.209 300.101C192.552 300.88 196.017 300.48 199.166 298.953C202.315 297.425 205.006 294.839 206.9 291.52C208.794 288.201 209.804 284.3 209.804 280.308C209.804 277.658 209.359 275.034 208.492 272.586C207.626 270.137 206.357 267.913 204.757 266.039C203.156 264.165 201.257 262.678 199.166 261.664C197.075 260.65 194.834 260.128 192.571 260.128V260.128ZM195.662 280.793V290.349H189.57V280.793C188.727 280.046 188.105 279.007 187.793 277.824C187.481 276.641 187.495 275.373 187.831 274.2C188.168 273.026 188.811 272.006 189.669 271.283C190.528 270.56 191.558 270.171 192.616 270.171C193.673 270.171 194.704 270.56 195.562 271.283C196.421 272.006 197.063 273.026 197.4 274.2C197.737 275.373 197.75 276.641 197.438 277.824C197.126 279.007 196.505 280.046 195.662 280.793V280.793Z" fill="black"/>
<path d="M192.571 254.362C188.189 254.362 183.905 255.884 180.261 258.735C176.617 261.586 173.777 265.638 172.1 270.379C170.423 275.12 169.985 280.337 170.84 285.37C171.694 290.403 173.805 295.026 176.903 298.655C180.002 302.284 183.95 304.755 188.248 305.756C192.546 306.757 197.001 306.243 201.05 304.279C205.099 302.316 208.559 298.99 210.994 294.723C213.429 290.456 214.728 285.44 214.728 280.308C214.728 273.427 212.394 266.827 208.238 261.962C204.083 257.096 198.447 254.362 192.571 254.362V254.362ZM196.544 280.932V293.216H188.71V280.932C187.626 279.971 186.827 278.636 186.425 277.114C186.024 275.593 186.041 273.962 186.474 272.452C186.907 270.943 187.733 269.631 188.838 268.701C189.942 267.771 191.267 267.271 192.627 267.271C193.987 267.271 195.312 267.771 196.416 268.701C197.52 269.631 198.347 270.943 198.78 272.452C199.213 273.962 199.23 275.593 198.828 277.114C198.427 278.636 197.628 279.971 196.544 280.932V280.932Z" fill="#2477A6"/>
<path d="M295.523 276.904H223.904V285.815H295.523V276.904Z" fill="white"/>
<path d="M295.523 293.153H280.08V302.064H295.523V293.153Z" fill="#2477A6"/>
<path d="M230.954 281.226H229.658L230.811 279.878C230.832 279.854 230.843 279.82 230.843 279.785C230.843 279.751 230.832 279.717 230.811 279.692C230.801 279.68 230.788 279.67 230.775 279.664C230.761 279.657 230.746 279.654 230.732 279.654C230.717 279.654 230.702 279.657 230.689 279.664C230.675 279.67 230.663 279.68 230.652 279.692L229.5 281.042V279.522C229.5 279.487 229.488 279.454 229.467 279.429C229.446 279.405 229.417 279.391 229.388 279.391C229.358 279.392 229.33 279.406 229.309 279.43C229.288 279.455 229.276 279.488 229.276 279.522V281.042L228.125 279.685C228.115 279.672 228.103 279.663 228.089 279.656C228.075 279.649 228.061 279.646 228.046 279.646C228.031 279.646 228.016 279.649 228.003 279.656C227.989 279.663 227.977 279.672 227.966 279.685C227.946 279.709 227.934 279.743 227.934 279.778C227.934 279.812 227.946 279.846 227.966 279.871L229.119 281.218H227.821C227.791 281.218 227.763 281.232 227.742 281.257C227.722 281.281 227.71 281.314 227.709 281.349C227.709 281.384 227.721 281.417 227.742 281.441C227.763 281.466 227.791 281.48 227.821 281.48H229.119L227.966 282.83C227.946 282.854 227.934 282.888 227.934 282.923C227.934 282.957 227.946 282.991 227.966 283.016C227.988 283.039 228.016 283.052 228.046 283.052C228.075 283.052 228.104 283.039 228.125 283.016L229.276 281.666V283.183C229.276 283.218 229.287 283.251 229.308 283.276C229.329 283.301 229.358 283.314 229.388 283.314C229.417 283.314 229.446 283.301 229.467 283.276C229.488 283.251 229.5 283.218 229.5 283.183V281.666L230.652 283.016C230.674 283.039 230.702 283.052 230.732 283.052C230.761 283.052 230.789 283.039 230.811 283.016C230.832 282.991 230.843 282.957 230.843 282.923C230.843 282.888 230.832 282.854 230.811 282.83L229.658 281.48H230.954C230.984 281.48 231.012 281.466 231.033 281.441C231.054 281.417 231.066 281.384 231.066 281.349C231.064 281.315 231.052 281.284 231.031 281.261C231.01 281.238 230.983 281.226 230.954 281.226Z" fill="#2477A6"/>
<path d="M235.654 281.226H234.358L235.511 279.878C235.532 279.854 235.543 279.82 235.543 279.785C235.543 279.751 235.532 279.717 235.511 279.692C235.501 279.68 235.488 279.67 235.475 279.664C235.461 279.657 235.446 279.654 235.432 279.654C235.417 279.654 235.402 279.657 235.389 279.664C235.375 279.67 235.363 279.68 235.352 279.692L234.2 281.042V279.522C234.2 279.487 234.188 279.454 234.167 279.429C234.146 279.405 234.117 279.391 234.088 279.391C234.058 279.392 234.03 279.406 234.009 279.43C233.988 279.455 233.976 279.488 233.976 279.522V281.042L232.825 279.685C232.815 279.672 232.803 279.663 232.789 279.656C232.775 279.649 232.761 279.646 232.746 279.646C232.731 279.646 232.716 279.649 232.703 279.656C232.689 279.663 232.677 279.672 232.666 279.685C232.646 279.709 232.634 279.743 232.634 279.778C232.634 279.812 232.646 279.846 232.666 279.871L233.819 281.218H232.521C232.491 281.218 232.463 281.232 232.442 281.257C232.422 281.281 232.41 281.314 232.409 281.349C232.409 281.384 232.421 281.417 232.442 281.441C232.463 281.466 232.491 281.48 232.521 281.48H233.819L232.666 282.83C232.646 282.854 232.634 282.888 232.634 282.923C232.634 282.957 232.646 282.991 232.666 283.016C232.688 283.039 232.716 283.052 232.746 283.052C232.775 283.052 232.804 283.039 232.825 283.016L233.976 281.666V283.183C233.976 283.218 233.987 283.251 234.008 283.276C234.029 283.301 234.058 283.314 234.088 283.314C234.117 283.314 234.146 283.301 234.167 283.276C234.188 283.251 234.2 283.218 234.2 283.183V281.666L235.352 283.016C235.374 283.039 235.402 283.052 235.432 283.052C235.461 283.052 235.489 283.039 235.511 283.016C235.532 282.991 235.543 282.957 235.543 282.923C235.543 282.888 235.532 282.854 235.511 282.83L234.358 281.48H235.654C235.684 281.48 235.712 281.466 235.733 281.441C235.754 281.417 235.766 281.384 235.766 281.349C235.764 281.315 235.752 281.284 235.731 281.261C235.71 281.238 235.683 281.226 235.654 281.226Z" fill="#2477A6"/>
<path d="M240.354 281.226H239.058L240.211 279.878C240.232 279.854 240.243 279.82 240.243 279.785C240.243 279.751 240.232 279.717 240.211 279.692C240.201 279.68 240.188 279.67 240.175 279.664C240.161 279.657 240.146 279.654 240.132 279.654C240.117 279.654 240.102 279.657 240.089 279.664C240.075 279.67 240.063 279.68 240.052 279.692L238.9 281.042V279.522C238.9 279.487 238.888 279.454 238.867 279.429C238.846 279.405 238.817 279.391 238.788 279.391C238.758 279.392 238.73 279.406 238.709 279.43C238.688 279.455 238.676 279.488 238.676 279.522V281.042L237.525 279.685C237.515 279.672 237.503 279.663 237.489 279.656C237.475 279.649 237.461 279.646 237.446 279.646C237.431 279.646 237.416 279.649 237.403 279.656C237.389 279.663 237.377 279.672 237.366 279.685C237.346 279.709 237.334 279.743 237.334 279.778C237.334 279.812 237.346 279.846 237.366 279.871L238.519 281.218H237.221C237.191 281.218 237.163 281.232 237.142 281.257C237.122 281.281 237.11 281.314 237.109 281.349C237.109 281.384 237.121 281.417 237.142 281.441C237.163 281.466 237.191 281.48 237.221 281.48H238.519L237.366 282.83C237.346 282.854 237.334 282.888 237.334 282.923C237.334 282.957 237.346 282.991 237.366 283.016C237.388 283.039 237.416 283.052 237.446 283.052C237.475 283.052 237.504 283.039 237.525 283.016L238.676 281.666V283.183C238.676 283.218 238.687 283.251 238.708 283.276C238.729 283.301 238.758 283.314 238.788 283.314C238.817 283.314 238.846 283.301 238.867 283.276C238.888 283.251 238.9 283.218 238.9 283.183V281.666L240.052 283.016C240.074 283.039 240.102 283.052 240.132 283.052C240.161 283.052 240.189 283.039 240.211 283.016C240.232 282.991 240.243 282.957 240.243 282.923C240.243 282.888 240.232 282.854 240.211 282.83L239.058 281.48H240.354C240.384 281.48 240.412 281.466 240.433 281.441C240.454 281.417 240.466 281.384 240.466 281.349C240.464 281.315 240.452 281.284 240.431 281.261C240.41 281.238 240.383 281.226 240.354 281.226Z" fill="#2477A6"/>
<path d="M245.054 281.226H243.758L244.911 279.878C244.932 279.854 244.943 279.82 244.943 279.785C244.943 279.751 244.932 279.717 244.911 279.692C244.901 279.68 244.888 279.67 244.875 279.664C244.861 279.657 244.846 279.654 244.832 279.654C244.817 279.654 244.802 279.657 244.789 279.664C244.775 279.67 244.763 279.68 244.752 279.692L243.599 281.042V279.522C243.599 279.487 243.588 279.454 243.567 279.429C243.546 279.405 243.517 279.391 243.488 279.391C243.458 279.392 243.43 279.406 243.409 279.43C243.388 279.455 243.376 279.488 243.376 279.522V281.042L242.225 279.685C242.215 279.672 242.203 279.663 242.189 279.656C242.175 279.649 242.161 279.646 242.146 279.646C242.131 279.646 242.116 279.649 242.103 279.656C242.089 279.663 242.077 279.672 242.066 279.685C242.046 279.709 242.034 279.743 242.034 279.778C242.034 279.812 242.046 279.846 242.066 279.871L243.219 281.218H241.921C241.891 281.218 241.863 281.232 241.842 281.257C241.822 281.281 241.81 281.314 241.809 281.349C241.809 281.384 241.821 281.417 241.842 281.441C241.863 281.466 241.891 281.48 241.921 281.48H243.219L242.066 282.83C242.046 282.854 242.034 282.888 242.034 282.923C242.034 282.957 242.046 282.991 242.066 283.016C242.088 283.039 242.116 283.052 242.146 283.052C242.175 283.052 242.204 283.039 242.225 283.016L243.376 281.666V283.183C243.376 283.218 243.387 283.251 243.408 283.276C243.429 283.301 243.458 283.314 243.488 283.314C243.517 283.314 243.546 283.301 243.567 283.276C243.588 283.251 243.599 283.218 243.599 283.183V281.666L244.752 283.016C244.774 283.039 244.802 283.052 244.832 283.052C244.861 283.052 244.889 283.039 244.911 283.016C244.932 282.991 244.943 282.957 244.943 282.923C244.943 282.888 244.932 282.854 244.911 282.83L243.758 281.48H245.054C245.084 281.48 245.112 281.466 245.133 281.441C245.154 281.417 245.166 281.384 245.166 281.349C245.164 281.315 245.152 281.284 245.131 281.261C245.11 281.238 245.083 281.226 245.054 281.226Z" fill="#2477A6"/>
<path d="M249.754 281.226H248.458L249.611 279.878C249.632 279.854 249.643 279.82 249.643 279.785C249.643 279.751 249.632 279.717 249.611 279.692C249.601 279.68 249.588 279.67 249.575 279.664C249.561 279.657 249.546 279.654 249.532 279.654C249.517 279.654 249.502 279.657 249.489 279.664C249.475 279.67 249.463 279.68 249.452 279.692L248.3 281.042V279.522C248.3 279.487 248.288 279.454 248.267 279.429C248.246 279.405 248.217 279.391 248.188 279.391C248.158 279.392 248.13 279.406 248.109 279.43C248.088 279.455 248.076 279.488 248.076 279.522V281.042L246.925 279.685C246.915 279.672 246.903 279.663 246.889 279.656C246.875 279.649 246.861 279.646 246.846 279.646C246.831 279.646 246.816 279.649 246.803 279.656C246.789 279.663 246.777 279.672 246.766 279.685C246.746 279.709 246.734 279.743 246.734 279.778C246.734 279.812 246.746 279.846 246.766 279.871L247.919 281.218H246.621C246.591 281.218 246.563 281.232 246.542 281.257C246.522 281.281 246.51 281.314 246.509 281.349C246.509 281.384 246.521 281.417 246.542 281.441C246.563 281.466 246.591 281.48 246.621 281.48H247.919L246.766 282.83C246.746 282.854 246.734 282.888 246.734 282.923C246.734 282.957 246.746 282.991 246.766 283.016C246.788 283.039 246.816 283.052 246.846 283.052C246.875 283.052 246.904 283.039 246.925 283.016L248.076 281.666V283.183C248.076 283.218 248.087 283.251 248.108 283.276C248.129 283.301 248.158 283.314 248.188 283.314C248.217 283.314 248.246 283.301 248.267 283.276C248.288 283.251 248.3 283.218 248.3 283.183V281.666L249.452 283.016C249.474 283.039 249.502 283.052 249.532 283.052C249.561 283.052 249.589 283.039 249.611 283.016C249.632 282.991 249.643 282.957 249.643 282.923C249.643 282.888 249.632 282.854 249.611 282.83L248.458 281.48H249.754C249.784 281.48 249.812 281.466 249.833 281.441C249.854 281.417 249.866 281.384 249.866 281.349C249.864 281.315 249.852 281.284 249.831 281.261C249.81 281.238 249.783 281.226 249.754 281.226Z" fill="#2477A6"/>
<path d="M254.454 281.226H253.158L254.311 279.878C254.332 279.854 254.343 279.82 254.343 279.785C254.343 279.751 254.332 279.717 254.311 279.692C254.301 279.68 254.288 279.67 254.275 279.664C254.261 279.657 254.246 279.654 254.232 279.654C254.217 279.654 254.202 279.657 254.189 279.664C254.175 279.67 254.163 279.68 254.152 279.692L253 281.042V279.522C253 279.487 252.988 279.454 252.967 279.429C252.946 279.405 252.917 279.391 252.888 279.391C252.858 279.392 252.83 279.406 252.809 279.43C252.788 279.455 252.776 279.488 252.776 279.522V281.042L251.625 279.685C251.615 279.672 251.603 279.663 251.589 279.656C251.575 279.649 251.561 279.646 251.546 279.646C251.531 279.646 251.516 279.649 251.503 279.656C251.489 279.663 251.477 279.672 251.466 279.685C251.446 279.709 251.434 279.743 251.434 279.778C251.434 279.812 251.446 279.846 251.466 279.871L252.619 281.218H251.321C251.291 281.218 251.263 281.232 251.242 281.257C251.222 281.281 251.21 281.314 251.209 281.349C251.209 281.384 251.221 281.417 251.242 281.441C251.263 281.466 251.291 281.48 251.321 281.48H252.619L251.466 282.83C251.446 282.854 251.434 282.888 251.434 282.923C251.434 282.957 251.446 282.991 251.466 283.016C251.488 283.039 251.516 283.052 251.546 283.052C251.575 283.052 251.604 283.039 251.625 283.016L252.776 281.666V283.183C252.776 283.218 252.787 283.251 252.808 283.276C252.829 283.301 252.858 283.314 252.888 283.314C252.917 283.314 252.946 283.301 252.967 283.276C252.988 283.251 253 283.218 253 283.183V281.666L254.152 283.016C254.174 283.039 254.202 283.052 254.232 283.052C254.261 283.052 254.289 283.039 254.311 283.016C254.332 282.991 254.343 282.957 254.343 282.923C254.343 282.888 254.332 282.854 254.311 282.83L253.158 281.48H254.454C254.484 281.48 254.512 281.466 254.533 281.441C254.554 281.417 254.566 281.384 254.566 281.349C254.564 281.315 254.552 281.284 254.531 281.261C254.51 281.238 254.483 281.226 254.454 281.226Z" fill="#2477A6"/>
<path d="M259.154 281.226H257.858L259.011 279.878C259.032 279.854 259.043 279.82 259.043 279.785C259.043 279.751 259.032 279.717 259.011 279.692C259.001 279.68 258.988 279.67 258.975 279.664C258.961 279.657 258.946 279.654 258.932 279.654C258.917 279.654 258.902 279.657 258.889 279.664C258.875 279.67 258.863 279.68 258.852 279.692L257.7 281.042V279.522C257.7 279.487 257.688 279.454 257.667 279.429C257.646 279.405 257.617 279.391 257.588 279.391C257.558 279.392 257.53 279.406 257.509 279.43C257.488 279.455 257.476 279.488 257.476 279.522V281.042L256.325 279.685C256.315 279.672 256.303 279.663 256.289 279.656C256.275 279.649 256.261 279.646 256.246 279.646C256.231 279.646 256.216 279.649 256.203 279.656C256.189 279.663 256.177 279.672 256.166 279.685C256.146 279.709 256.134 279.743 256.134 279.778C256.134 279.812 256.146 279.846 256.166 279.871L257.319 281.218H256.021C255.991 281.218 255.963 281.232 255.942 281.257C255.922 281.281 255.91 281.314 255.909 281.349C255.909 281.384 255.921 281.417 255.942 281.441C255.963 281.466 255.991 281.48 256.021 281.48H257.319L256.166 282.83C256.146 282.854 256.134 282.888 256.134 282.923C256.134 282.957 256.146 282.991 256.166 283.016C256.188 283.039 256.216 283.052 256.246 283.052C256.275 283.052 256.304 283.039 256.325 283.016L257.476 281.666V283.183C257.476 283.218 257.487 283.251 257.508 283.276C257.529 283.301 257.558 283.314 257.588 283.314C257.617 283.314 257.646 283.301 257.667 283.276C257.688 283.251 257.7 283.218 257.7 283.183V281.666L258.852 283.016C258.874 283.039 258.902 283.052 258.932 283.052C258.961 283.052 258.989 283.039 259.011 283.016C259.032 282.991 259.043 282.957 259.043 282.923C259.043 282.888 259.032 282.854 259.011 282.83L257.858 281.48H259.154C259.184 281.48 259.212 281.466 259.233 281.441C259.254 281.417 259.266 281.384 259.266 281.349C259.264 281.315 259.252 281.284 259.231 281.261C259.21 281.238 259.183 281.226 259.154 281.226Z" fill="#2477A6"/>
<path d="M263.854 281.226H262.558L263.711 279.878C263.732 279.854 263.743 279.82 263.743 279.785C263.743 279.751 263.732 279.717 263.711 279.692C263.701 279.68 263.688 279.67 263.675 279.664C263.661 279.657 263.646 279.654 263.632 279.654C263.617 279.654 263.602 279.657 263.589 279.664C263.575 279.67 263.563 279.68 263.552 279.692L262.399 281.042V279.522C262.399 279.487 262.388 279.454 262.367 279.429C262.346 279.405 262.317 279.391 262.288 279.391C262.258 279.392 262.23 279.406 262.209 279.43C262.188 279.455 262.176 279.488 262.176 279.522V281.042L261.025 279.685C261.015 279.672 261.003 279.663 260.989 279.656C260.975 279.649 260.961 279.646 260.946 279.646C260.931 279.646 260.916 279.649 260.903 279.656C260.889 279.663 260.877 279.672 260.866 279.685C260.846 279.709 260.834 279.743 260.834 279.778C260.834 279.812 260.846 279.846 260.866 279.871L262.019 281.218H260.721C260.691 281.218 260.663 281.232 260.642 281.257C260.622 281.281 260.61 281.314 260.609 281.349C260.609 281.384 260.621 281.417 260.642 281.441C260.663 281.466 260.691 281.48 260.721 281.48H262.019L260.866 282.83C260.846 282.854 260.834 282.888 260.834 282.923C260.834 282.957 260.846 282.991 260.866 283.016C260.888 283.039 260.916 283.052 260.946 283.052C260.975 283.052 261.004 283.039 261.025 283.016L262.176 281.666V283.183C262.176 283.218 262.187 283.251 262.208 283.276C262.229 283.301 262.258 283.314 262.288 283.314C262.317 283.314 262.346 283.301 262.367 283.276C262.388 283.251 262.399 283.218 262.399 283.183V281.666L263.552 283.016C263.574 283.039 263.602 283.052 263.632 283.052C263.661 283.052 263.689 283.039 263.711 283.016C263.732 282.991 263.743 282.957 263.743 282.923C263.743 282.888 263.732 282.854 263.711 282.83L262.558 281.48H263.854C263.884 281.48 263.912 281.466 263.933 281.441C263.954 281.417 263.966 281.384 263.966 281.349C263.964 281.315 263.952 281.284 263.931 281.261C263.91 281.238 263.883 281.226 263.854 281.226Z" fill="#2477A6"/>
<path d="M268.554 281.226H267.258L268.411 279.878C268.432 279.854 268.443 279.82 268.443 279.785C268.443 279.751 268.432 279.717 268.411 279.692C268.401 279.68 268.388 279.67 268.375 279.664C268.361 279.657 268.346 279.654 268.332 279.654C268.317 279.654 268.302 279.657 268.289 279.664C268.275 279.67 268.263 279.68 268.252 279.692L267.1 281.042V279.522C267.1 279.487 267.088 279.454 267.067 279.429C267.046 279.405 267.017 279.391 266.988 279.391C266.958 279.392 266.93 279.406 266.909 279.43C266.888 279.455 266.876 279.488 266.876 279.522V281.042L265.725 279.685C265.715 279.672 265.703 279.663 265.689 279.656C265.675 279.649 265.661 279.646 265.646 279.646C265.631 279.646 265.616 279.649 265.603 279.656C265.589 279.663 265.577 279.672 265.566 279.685C265.546 279.709 265.534 279.743 265.534 279.778C265.534 279.812 265.546 279.846 265.566 279.871L266.719 281.218H265.421C265.391 281.218 265.363 281.232 265.342 281.257C265.322 281.281 265.31 281.314 265.309 281.349C265.309 281.384 265.321 281.417 265.342 281.441C265.363 281.466 265.391 281.48 265.421 281.48H266.719L265.566 282.83C265.546 282.854 265.534 282.888 265.534 282.923C265.534 282.957 265.546 282.991 265.566 283.016C265.588 283.039 265.616 283.052 265.646 283.052C265.675 283.052 265.704 283.039 265.725 283.016L266.876 281.666V283.183C266.876 283.218 266.887 283.251 266.908 283.276C266.929 283.301 266.958 283.314 266.988 283.314C267.017 283.314 267.046 283.301 267.067 283.276C267.088 283.251 267.1 283.218 267.1 283.183V281.666L268.252 283.016C268.274 283.039 268.302 283.052 268.332 283.052C268.361 283.052 268.389 283.039 268.411 283.016C268.432 282.991 268.443 282.957 268.443 282.923C268.443 282.888 268.432 282.854 268.411 282.83L267.258 281.48H268.554C268.584 281.48 268.612 281.466 268.633 281.441C268.654 281.417 268.666 281.384 268.666 281.349C268.664 281.315 268.652 281.284 268.631 281.261C268.61 281.238 268.583 281.226 268.554 281.226Z" fill="#2477A6"/>
<path d="M273.254 281.226H271.958L273.111 279.878C273.132 279.854 273.143 279.82 273.143 279.785C273.143 279.751 273.132 279.717 273.111 279.692C273.101 279.68 273.088 279.67 273.075 279.664C273.061 279.657 273.046 279.654 273.032 279.654C273.017 279.654 273.002 279.657 272.989 279.664C272.975 279.67 272.963 279.68 272.952 279.692L271.8 281.042V279.522C271.8 279.487 271.788 279.454 271.767 279.429C271.746 279.405 271.717 279.391 271.688 279.391C271.658 279.392 271.63 279.406 271.609 279.43C271.588 279.455 271.576 279.488 271.576 279.522V281.042L270.425 279.685C270.415 279.672 270.403 279.663 270.389 279.656C270.375 279.649 270.361 279.646 270.346 279.646C270.331 279.646 270.316 279.649 270.303 279.656C270.289 279.663 270.277 279.672 270.266 279.685C270.246 279.709 270.234 279.743 270.234 279.778C270.234 279.812 270.246 279.846 270.266 279.871L271.419 281.218H270.121C270.091 281.218 270.063 281.232 270.042 281.257C270.022 281.281 270.01 281.314 270.009 281.349C270.009 281.384 270.021 281.417 270.042 281.441C270.063 281.466 270.091 281.48 270.121 281.48H271.419L270.266 282.83C270.246 282.854 270.234 282.888 270.234 282.923C270.234 282.957 270.246 282.991 270.266 283.016C270.288 283.039 270.316 283.052 270.346 283.052C270.375 283.052 270.404 283.039 270.425 283.016L271.576 281.666V283.183C271.576 283.218 271.587 283.251 271.608 283.276C271.629 283.301 271.658 283.314 271.688 283.314C271.717 283.314 271.746 283.301 271.767 283.276C271.788 283.251 271.8 283.218 271.8 283.183V281.666L272.952 283.016C272.974 283.039 273.002 283.052 273.032 283.052C273.061 283.052 273.089 283.039 273.111 283.016C273.132 282.991 273.143 282.957 273.143 282.923C273.143 282.888 273.132 282.854 273.111 282.83L271.958 281.48H273.254C273.284 281.48 273.312 281.466 273.333 281.441C273.354 281.417 273.366 281.384 273.366 281.349C273.364 281.315 273.352 281.284 273.331 281.261C273.31 281.238 273.283 281.226 273.254 281.226Z" fill="#2477A6"/>
<path d="M277.954 281.226H276.658L277.811 279.878C277.832 279.854 277.843 279.82 277.843 279.785C277.843 279.751 277.832 279.717 277.811 279.692C277.801 279.68 277.788 279.67 277.775 279.664C277.761 279.657 277.746 279.654 277.732 279.654C277.717 279.654 277.702 279.657 277.689 279.664C277.675 279.67 277.663 279.68 277.652 279.692L276.5 281.042V279.522C276.5 279.487 276.488 279.454 276.467 279.429C276.446 279.405 276.417 279.391 276.388 279.391C276.358 279.392 276.33 279.406 276.309 279.43C276.288 279.455 276.276 279.488 276.276 279.522V281.042L275.125 279.685C275.115 279.672 275.103 279.663 275.089 279.656C275.075 279.649 275.061 279.646 275.046 279.646C275.031 279.646 275.016 279.649 275.003 279.656C274.989 279.663 274.977 279.672 274.966 279.685C274.946 279.709 274.934 279.743 274.934 279.778C274.934 279.812 274.946 279.846 274.966 279.871L276.119 281.218H274.821C274.791 281.218 274.763 281.232 274.742 281.257C274.722 281.281 274.71 281.314 274.709 281.349C274.709 281.384 274.721 281.417 274.742 281.441C274.763 281.466 274.791 281.48 274.821 281.48H276.119L274.966 282.83C274.946 282.854 274.934 282.888 274.934 282.923C274.934 282.957 274.946 282.991 274.966 283.016C274.988 283.039 275.016 283.052 275.046 283.052C275.075 283.052 275.104 283.039 275.125 283.016L276.276 281.666V283.183C276.276 283.218 276.287 283.251 276.308 283.276C276.329 283.301 276.358 283.314 276.388 283.314C276.417 283.314 276.446 283.301 276.467 283.276C276.488 283.251 276.5 283.218 276.5 283.183V281.666L277.652 283.016C277.674 283.039 277.702 283.052 277.732 283.052C277.761 283.052 277.789 283.039 277.811 283.016C277.832 282.991 277.843 282.957 277.843 282.923C277.843 282.888 277.832 282.854 277.811 282.83L276.658 281.48H277.954C277.984 281.48 278.012 281.466 278.033 281.441C278.054 281.417 278.066 281.384 278.066 281.349C278.064 281.315 278.052 281.284 278.031 281.261C278.01 281.238 277.983 281.226 277.954 281.226Z" fill="#2477A6"/>
<path d="M313.985 313.108C313.979 312.791 313.945 312.476 313.885 312.167C313.683 311.281 313.229 310.209 312.481 309.942C311.71 309.665 310.964 309.296 310.257 308.841C310.122 306.032 310.673 303.157 310.073 300.434C309.849 299.438 309.48 298.484 309.382 297.464C309.258 296.196 309.554 294.843 309.122 293.674C308.782 292.752 308.034 292.102 307.231 291.761C306.427 291.421 305.561 291.329 304.708 291.237C303.634 291.135 300.156 290.653 298.943 291.777C298.859 291.853 298.784 291.941 298.719 292.039V292.039C298.692 292.082 298.669 292.128 298.648 292.175L298.636 292.196C298.612 292.251 298.592 292.308 298.576 292.367V292.367C298.559 292.431 298.546 292.497 298.538 292.563C298.538 292.584 298.538 292.605 298.538 292.626C298.538 292.647 298.538 292.718 298.538 292.765V292.836C298.538 292.883 298.538 292.93 298.538 292.98C298.538 293.03 298.538 293.017 298.538 293.035C298.554 293.271 298.583 293.507 298.583 293.74C298.585 293.856 298.576 293.972 298.556 294.086C298.481 294.395 298.355 294.684 298.184 294.935V294.935L298.144 295.003C298.119 295.045 298.095 295.084 298.072 295.126C298.05 295.168 298.032 295.2 298.014 295.236C297.996 295.273 297.978 295.297 297.963 295.331C297.941 295.374 297.922 295.419 297.905 295.465C297.905 295.491 297.88 295.514 297.871 295.541C297.843 295.611 297.821 295.685 297.804 295.761C297.751 295.988 297.747 296.228 297.79 296.458C297.851 296.752 297.955 297.031 298.097 297.283C298.153 297.391 298.213 297.496 298.276 297.6L298.433 297.849C298.404 298.093 298.388 298.338 298.386 298.583C298.386 299.404 298.545 300.214 298.851 300.952C299.158 301.69 299.603 302.337 300.154 302.845C300.243 303.952 300.233 305.066 300.125 306.171C300.105 306.401 300.08 306.634 300.053 306.865C300.026 307.096 300.006 307.248 299.979 307.439C299.652 307.494 299.318 307.464 299.001 307.353C298.855 307.276 298.706 307.209 298.554 307.151C297.902 306.959 297.238 307.719 296.593 307.489C296.593 307.526 296.575 307.56 296.564 307.594C296.429 307.496 296.275 307.442 296.116 307.439C295.734 307.418 295.423 307.093 295.145 306.786L294.292 305.846C294.237 305.788 294.187 305.723 294.145 305.652C294.099 305.55 294.064 305.441 294.042 305.329C293.898 304.787 293.552 304.354 293.216 303.943C293.152 303.849 293.068 303.777 292.972 303.736C292.935 303.729 292.897 303.729 292.86 303.736C292.837 303.699 292.812 303.664 292.786 303.631C292.728 303.553 292.666 303.48 292.6 303.411C292.193 302.971 292.153 302.593 291.799 302.1C291.491 301.631 291.211 301.136 290.962 300.62C290.933 300.344 290.893 300.061 290.843 299.776C290.731 299.122 290.567 298.481 290.353 297.863L289.906 296.702L289.854 296.762C289.53 296.196 289.183 295.886 288.872 295.96C288.35 296.086 288.093 297.27 288.176 298.819L288.355 300.392C288.355 300.431 288.37 300.47 288.379 300.51C288.347 300.696 288.331 300.886 288.33 301.076C288.33 301.296 288.505 301.458 288.596 301.655C288.743 301.921 288.821 302.232 288.82 302.549C288.809 302.661 288.78 302.769 288.775 302.879C288.788 303.125 288.861 303.362 288.986 303.56L290.105 305.762L290.329 306.223L290.342 306.244C290.413 306.405 290.516 306.543 290.642 306.648C290.686 307.199 290.811 307.737 291.011 308.238C291.049 308.338 291.092 308.432 291.137 308.527C291.438 309.106 291.792 309.645 292.193 310.133L292.726 310.833C293.252 311.52 293.778 312.209 294.348 312.843C294.553 313.098 294.799 313.3 295.073 313.438C295.208 313.501 295.354 313.521 295.497 313.497C295.64 313.472 295.775 313.404 295.888 313.299C295.888 313.624 295.888 313.949 295.888 314.274C295.971 314.28 296.051 314.312 296.12 314.366C296.19 314.421 296.245 314.496 296.281 314.584C296.317 314.672 296.332 314.769 296.326 314.866C296.319 314.963 296.29 315.057 296.242 315.136C295.772 316.549 295.297 317.975 294.586 319.241C295.088 319.589 295.554 320.005 295.973 320.48C296.245 320.834 296.488 321.217 296.696 321.626C296.716 321.82 296.732 322.011 296.741 322.202C296.906 325.326 295.875 328.427 294.95 331.404C294.684 332.248 294.393 333.131 294.415 334.009C294.24 334.136 294.073 334.277 293.914 334.431C294.098 334.992 294.026 335.492 294.006 336.093C293.999 336.452 293.936 336.808 293.82 337.141C293.723 337.372 293.615 337.597 293.498 337.814C292.918 339.012 292.791 340.435 292.674 341.803C292.605 342.629 292.878 343.638 292.558 344.377C292.005 345.645 291.515 346.998 291.439 348.408C291.436 348.725 291.402 349.041 291.336 349.349C291.266 349.611 291.143 349.834 291.081 350.09C291.016 350.434 291.001 350.789 291.036 351.139C291.079 352.395 290.919 353.649 290.566 354.837C290.286 355.772 289.977 356.773 290.197 357.735C289.657 358.399 289.323 359.257 289.25 360.17C289.244 360.404 289.22 360.636 289.178 360.865C289.11 361.098 289.02 361.322 288.91 361.533C288.459 362.494 288.248 363.583 288.301 364.678C287.63 365.745 287.294 367.06 287.095 368.368C286.895 369.676 286.808 371.007 286.553 372.299C286.213 374.008 285.597 375.735 285.476 377.486C284.751 378.028 284.438 379.079 284.299 380.073C284.16 381.066 284.138 382.109 283.782 383.026C283.599 383.503 283.335 383.93 283.16 384.418C283.038 384.806 282.948 385.207 282.892 385.616C282.784 386.255 282.69 386.968 282.822 387.581C282.632 387.817 282.411 388.014 282.166 388.166C282.202 388.003 282.231 387.841 282.256 387.676C281.678 388.289 280.631 388.074 280.17 388.81C280.032 389.048 279.978 389.339 280.019 389.622C280.061 389.906 280.195 390.159 280.394 390.328C280.538 390.431 280.694 390.509 280.857 390.561C281.976 390.98 283.127 391.402 284.277 391.18C284.413 391.162 284.545 391.113 284.664 391.036C284.814 390.906 284.937 390.74 285.024 390.548C285.197 390.228 285.369 389.909 285.539 389.589C285.951 389.733 286.371 389.848 286.795 389.932C286.837 390.351 286.869 390.771 286.884 391.19C287.108 391.243 287.408 391.258 287.513 391.015C287.545 390.922 287.558 390.823 287.551 390.724C287.551 390.538 287.574 390.291 287.587 390.04H287.632C288.315 390.072 288.994 389.911 289.612 389.57C289.373 387.248 290.163 384.979 290.848 382.783C291.571 380.471 292.191 378.117 292.815 375.764C293.263 374.108 293.757 372.504 294.196 370.845C294.748 368.748 295.302 366.651 295.859 364.555C296.101 363.632 296.345 362.72 296.622 361.803C297.206 359.947 297.9 358.14 298.697 356.396C298.921 355.901 299.145 355.411 299.328 354.897C299.552 354.271 299.711 353.615 299.89 352.968C300.28 351.64 300.75 350.345 301.295 349.094C301.311 349.06 301.322 349.029 301.338 348.997C301.519 349.865 301.7 350.746 301.821 351.618C301.985 352.688 301.998 353.783 301.859 354.858C301.752 355.589 301.548 356.312 301.573 357.054C301.606 358.079 302.074 359.009 302.305 359.997C302.453 360.736 302.537 361.492 302.555 362.251C302.618 363.43 303.164 364.754 302.779 365.847C301.582 369.309 302.161 373.219 301.479 376.854C301.127 378.72 300.051 380.474 300.136 382.382C300.196 383.736 300.297 385.086 300.44 386.433C300.475 386.858 300.569 387.274 300.72 387.663C300.809 387.867 300.912 388.063 301.027 388.25C300.928 388.294 300.845 388.412 300.774 388.661C300.59 389.316 300.774 390.129 301.271 390.496C301.473 390.622 301.691 390.711 301.918 390.758C302.222 390.859 302.537 390.91 302.853 390.91C302.951 390.904 303.049 390.889 303.146 390.868C303.492 391.038 303.846 391.187 304.205 391.313C304.205 391.421 304.223 391.528 304.234 391.636C304.235 391.692 304.245 391.747 304.265 391.798C304.285 391.849 304.314 391.895 304.35 391.932C304.406 391.962 304.468 391.975 304.529 391.969H305.745C305.745 391.851 305.745 391.73 305.745 391.612C305.884 391.629 306.024 391.612 306.157 391.561C306.29 391.511 306.413 391.428 306.517 391.319C306.624 391.158 306.701 390.972 306.741 390.773C307.072 389.458 307.401 388.141 307.728 386.824C308.119 385.368 308.282 383.84 308.209 382.316C307.777 377.486 308.726 372.64 308.417 367.797C308.231 364.886 308.359 361.959 308.797 359.085C308.898 358.435 309.021 357.775 309.066 357.127C309.164 355.906 309.044 354.672 309.117 353.458C309.142 353.034 309.191 352.612 309.236 352.19C309.543 349.571 309.703 346.931 309.717 344.288C309.71 343.412 309.664 342.537 309.579 341.667C309.812 341.597 310.024 341.452 310.19 341.248C310.389 340.944 310.337 340.516 310.335 340.129C310.335 339.201 310.668 338.325 310.937 337.45C311.282 336.243 311.564 335.012 311.783 333.765C312.014 332.76 312.141 331.726 312.159 330.686C312.159 330.581 312.155 330.476 312.146 330.371C312.23 330.303 312.3 330.213 312.351 330.109C312.41 329.956 312.446 329.792 312.459 329.624C312.54 328.956 312.622 328.285 312.703 327.614C312.763 327.134 312.822 326.654 312.88 326.175L313.591 320.36C313.652 319.854 313.715 319.351 313.775 318.848L313.961 317.343C313.981 317.165 314.003 316.987 314.019 316.819C314.565 315.75 314.044 314.324 313.985 313.108ZM308.048 334.882C307.784 334.148 307.537 333.396 307.6 332.604H307.575C307.634 332.361 307.624 332.101 307.546 331.865C307.477 331.674 307.356 331.511 307.282 331.32C307.203 331.086 307.162 330.838 307.161 330.586C307.106 328.992 307.213 327.396 307.481 325.832C307.511 325.649 307.542 325.462 307.571 325.279C307.665 325.215 307.751 325.137 307.826 325.046C307.944 324.889 308.041 324.712 308.115 324.522C308.368 323.927 308.598 323.321 308.811 322.705C308.88 322.506 308.981 322.276 309.153 322.226C309.117 323.759 309.252 325.324 308.719 326.707C308.618 326.931 308.543 327.168 308.495 327.415C308.446 327.805 308.585 328.201 308.536 328.589C308.511 328.791 308.437 328.977 308.408 329.176C308.386 329.274 308.386 329.377 308.409 329.474C308.432 329.572 308.476 329.661 308.538 329.732C308.567 329.756 308.6 329.776 308.634 329.789C308.621 329.894 308.609 330.002 308.6 330.104C308.583 330.319 308.574 330.521 308.562 330.646C308.511 331.288 308.491 331.932 308.502 332.575C308.502 333.27 308.524 333.964 308.515 334.672C308.524 334.875 308.495 335.078 308.43 335.267C308.386 335.364 308.329 335.453 308.26 335.529C308.195 335.293 308.124 335.086 308.048 334.882Z" fill="url(#paint1_linear)"/>
<path d="M290.381 304.472C291.064 304.308 291.296 302.34 290.9 300.075C290.504 297.811 289.629 296.108 288.946 296.272C288.263 296.436 288.03 298.404 288.427 300.669C288.823 302.933 289.698 304.636 290.381 304.472Z" fill="#FBBEBE"/>
<path d="M300.81 388.711C300.626 389.361 300.81 390.173 301.307 390.527C301.508 390.653 301.725 390.741 301.949 390.789C302.253 390.89 302.567 390.94 302.882 390.939C303.269 390.918 303.641 390.739 304.028 390.676C304.073 390.663 304.12 390.671 304.16 390.697C304.18 390.722 304.194 390.751 304.203 390.783C304.211 390.814 304.213 390.848 304.209 390.881C304.214 391.139 304.23 391.396 304.259 391.651C304.259 391.708 304.269 391.763 304.29 391.814C304.31 391.865 304.339 391.911 304.375 391.948C304.431 391.978 304.493 391.991 304.554 391.984H305.767C305.795 390.736 305.678 389.49 305.42 388.278C305.403 388.186 305.373 388.097 305.331 388.016C305.228 387.884 305.092 387.793 304.943 387.754C304.647 387.61 304.327 387.544 304.006 387.563C303.614 387.623 303.287 387.919 302.954 388.166C302.62 388.412 302.166 388.63 301.761 388.504C301.356 388.378 301.018 387.982 300.81 388.711Z" fill="#3F3D56"/>
<path d="M282.999 387.56C282.658 387.988 282.24 388.321 281.775 388.535L281.569 388.651C281.54 388.663 281.516 388.686 281.499 388.716C281.495 388.736 281.495 388.758 281.499 388.778C281.503 388.798 281.511 388.818 281.522 388.834C281.693 389.144 281.946 389.381 282.243 389.507C282.539 389.633 282.863 389.643 283.165 389.534C283.298 389.495 283.421 389.419 283.525 389.314C283.695 389.077 283.793 388.78 283.802 388.47C283.87 388.15 283.858 387.815 283.769 387.503C283.458 386.682 283.344 387.054 282.999 387.56Z" fill="#FBBEBE"/>
<path d="M287.65 390.789C287.657 390.888 287.644 390.988 287.612 391.08C287.506 391.321 287.213 391.308 286.985 391.256C286.95 390.366 286.858 389.482 286.71 388.609C286.275 388.585 285.962 389.067 285.729 389.5L285.13 390.614C285.043 390.805 284.92 390.972 284.771 391.101C284.652 391.178 284.52 391.227 284.384 391.245C283.238 391.468 282.081 391.046 280.976 390.627C280.813 390.576 280.657 390.498 280.512 390.396C280.315 390.226 280.182 389.974 280.14 389.691C280.098 389.409 280.151 389.119 280.289 388.881C280.752 388.147 281.793 388.357 282.37 387.749C282.31 388.177 282.211 388.596 282.075 388.999C282.847 388.863 283.366 388.035 283.988 387.482C284.144 387.326 284.333 387.222 284.534 387.178C284.685 387.163 284.837 387.182 284.982 387.233C285.699 387.444 286.37 387.831 286.951 388.368C287.186 388.585 287.553 388.892 287.656 389.227C287.766 389.628 287.65 390.362 287.65 390.789Z" fill="#3F3D56"/>
<path d="M303.046 304.318C305.599 304.318 307.669 301.893 307.669 298.903C307.669 295.913 305.599 293.488 303.046 293.488C300.492 293.488 298.422 295.913 298.422 298.903C298.422 301.893 300.492 304.318 303.046 304.318Z" fill="#FBBEBE"/>
<path d="M312.155 330.872C312.136 331.907 312.01 332.936 311.781 333.936C311.562 335.177 311.279 336.403 310.935 337.605C310.669 338.477 310.335 339.353 310.337 340.278C310.337 340.663 310.391 341.09 310.19 341.394C310.01 341.608 309.784 341.759 309.536 341.832C309.412 341.871 309.298 341.943 309.202 342.042C309.107 342.142 309.032 342.267 308.985 342.406C308.775 342.038 308.618 341.633 308.52 341.206C308.119 339.766 307.746 338.318 307.401 336.863C307.369 336.779 307.356 336.688 307.361 336.596C307.367 336.505 307.391 336.417 307.432 336.339C307.489 336.281 307.555 336.237 307.627 336.21C307.856 336.101 308.066 335.943 308.247 335.744C308.332 335.656 308.401 335.55 308.453 335.432C308.518 335.244 308.548 335.042 308.54 334.84C308.54 334.145 308.54 333.453 308.524 332.759C308.515 332.118 308.536 331.476 308.587 330.838C308.587 330.712 308.607 330.51 308.625 330.295C308.659 329.884 308.726 329.407 308.916 329.247C309.2 329.024 310.051 329.323 310.373 329.375C310.928 329.464 311.492 329.569 312.034 329.692C312.112 330.079 312.153 330.475 312.155 330.872Z" fill="#3F3D56"/>
<path d="M293.484 304.965C293.305 305.384 292.876 305.586 292.544 305.851L291.41 306.763C291.334 306.843 291.245 306.904 291.149 306.943C291.052 306.982 290.95 306.997 290.848 306.988C290.756 306.948 290.671 306.887 290.599 306.808C290.527 306.73 290.47 306.635 290.429 306.53C290.43 306.523 290.43 306.516 290.429 306.509L290.194 306.047L289.075 303.851C288.951 303.655 288.879 303.419 288.867 303.175C288.867 303.062 288.901 302.957 288.91 302.845C288.913 302.528 288.835 302.218 288.686 301.954C288.596 301.757 288.417 301.595 288.422 301.374C288.413 301.085 288.456 300.797 288.547 300.528C288.665 300.279 288.833 300.068 289.037 299.915C289.143 299.826 289.25 299.742 289.362 299.653C289.421 299.605 289.487 299.57 289.557 299.548C289.742 299.503 289.926 299.684 290.114 299.692C290.922 300.326 291.233 301.527 291.869 302.391C292.227 302.884 292.262 303.261 292.668 303.702C292.732 303.77 292.795 303.843 292.856 303.919C292.936 304.022 293.003 304.136 293.057 304.26C293.131 304.485 293.576 304.75 293.484 304.965Z" fill="#3F3D56"/>
<path d="M301.421 304.32C301.754 305.146 302.014 306.053 301.918 306.959C301.898 307.205 301.831 307.442 301.723 307.654C301.401 308.233 300.725 308.338 300.136 308.372C300.012 308.36 299.887 308.377 299.769 308.422C299.65 308.467 299.541 308.539 299.447 308.634C299.368 308.768 299.33 308.929 299.337 309.091C299.345 309.253 299.398 309.408 299.489 309.53C299.678 309.767 299.913 309.947 300.174 310.055C301.105 310.534 302.11 310.93 303.122 310.82C303.592 310.768 304.048 310.608 304.516 310.526C305.026 310.462 305.538 310.428 306.051 310.427C306.66 310.401 307.267 310.33 307.873 310.259L309.48 310.073C309.568 310.074 309.653 310.038 309.72 309.971C309.838 309.808 309.686 309.57 309.538 309.447C308.686 308.708 307.6 308.199 307.114 307.088C306.891 306.564 306.821 305.94 306.656 305.374C306.49 304.808 306.226 304.297 306.123 303.72C306.068 303.214 306.043 302.705 306.049 302.195C306.055 301.681 305.895 301.183 305.601 300.801C305.281 300.452 304.818 300.363 304.384 300.342C303.314 300.287 302.175 300.586 301.416 301.469C301.213 301.707 301.038 301.993 300.828 302.208C300.617 302.423 300.331 302.486 300.47 302.769C300.608 303.052 300.881 303.227 301.029 303.476C301.179 303.745 301.31 304.027 301.421 304.32V304.32Z" fill="#FBBEBE"/>
<path d="M310.536 311.944C310.254 313.962 309.795 315.941 309.167 317.849C308.851 318.711 308.582 319.595 308.361 320.496C308.189 321.308 308.222 322.179 308.063 322.994C307.866 324.008 307.669 325.025 307.511 326.047C307.244 327.608 307.137 329.2 307.193 330.791C307.193 331.041 307.234 331.289 307.314 331.522C307.387 331.711 307.506 331.873 307.575 332.067C307.627 332.237 307.649 332.418 307.638 332.599C307.627 332.779 307.584 332.955 307.513 333.115C307.398 333.415 307.242 333.691 307.052 333.933C304.966 334.662 302.734 334.423 300.561 334.578C298.558 334.719 296.533 335.201 294.559 334.8C294.335 333.752 294.709 332.654 295.029 331.632C295.958 328.663 296.985 325.57 296.819 322.459C296.802 322.096 296.767 321.735 296.714 321.377C296.389 319.173 296.743 316.89 297.309 314.754C297.661 313.422 297.645 312.005 297.564 310.618C297.525 310.168 297.519 309.714 297.549 309.263C297.581 308.802 297.727 308.362 297.97 307.997C297.97 307.979 297.99 307.961 298.001 307.942C298.012 307.924 298.099 307.927 298.169 307.942C298.186 307.951 298.205 307.956 298.225 307.956C298.244 307.956 298.263 307.951 298.281 307.942L298.305 307.924C298.315 307.916 298.326 307.912 298.338 307.912C298.349 307.912 298.361 307.916 298.37 307.924C298.422 307.961 298.451 308.086 298.563 308.11C298.728 308.139 298.895 308.158 299.062 308.165C299.263 308.172 299.462 308.205 299.657 308.265H299.684C299.975 308.322 300.274 308.292 300.552 308.178C300.738 308.124 300.917 308.043 301.085 307.937C301.134 307.874 301.443 307.816 301.506 307.772C301.709 307.628 301.665 306.952 301.707 306.674C301.731 306.395 301.787 306.122 301.875 305.861C301.977 305.669 302.118 305.509 302.285 305.395C302.452 305.282 302.64 305.218 302.833 305.209C303.218 305.198 303.603 305.238 303.981 305.329C304.816 305.468 305.671 305.445 306.49 305.67C306.902 305.783 307.352 305.953 307.73 305.733C307.833 305.762 307.848 305.867 307.848 305.995C307.839 306.117 307.818 306.237 307.786 306.354C307.643 307.077 308.128 307.743 308.576 308.267C308.765 308.514 308.988 308.723 309.236 308.883C309.46 309.004 309.684 309.053 309.908 309.185C310.089 309.298 310.243 309.463 310.355 309.664C310.484 309.895 310.571 310.155 310.61 310.427C310.658 310.934 310.633 311.447 310.536 311.944Z" fill="#3F3D56"/>
<path opacity="0.1" d="M310.536 311.944C310.254 313.962 309.795 315.941 309.167 317.849C308.851 318.711 308.582 319.595 308.361 320.496C308.189 321.308 308.222 322.179 308.063 322.994C307.866 324.008 307.669 325.025 307.511 326.047C307.464 326.078 307.414 326.107 307.365 326.133C307.087 326.289 306.792 326.4 306.488 326.464C305.942 326.541 305.39 326.52 304.849 326.401L301.656 325.9C300.38 325.698 299.021 325.455 298.075 324.443C297.549 323.887 297.204 323.154 296.826 322.446C296.809 322.083 296.773 321.722 296.721 321.364C296.396 319.159 296.75 316.877 297.316 314.741C297.667 313.409 297.652 311.991 297.571 310.605C297.531 310.155 297.526 309.701 297.555 309.25C297.588 308.789 297.734 308.349 297.976 307.984C298.042 307.962 298.108 307.944 298.175 307.932V307.932C298.22 307.921 298.266 307.914 298.312 307.911H298.377C298.452 307.911 298.527 307.922 298.601 307.942C298.753 307.999 298.903 308.067 299.048 308.144H299.075C299.267 308.218 299.469 308.252 299.671 308.244C299.966 308.244 300.27 308.189 300.566 308.165C300.931 308.098 301.304 308.177 301.627 308.388C301.835 308.584 302.032 308.795 302.217 309.019C302.441 309.225 302.693 309.386 302.963 309.494C304.889 310.355 307.027 310.302 308.921 309.347C309.102 309.226 309.309 309.164 309.518 309.169C309.673 309.204 309.819 309.277 309.948 309.384C310.082 309.475 310.214 309.565 310.351 309.646C310.48 309.877 310.567 310.136 310.606 310.408C310.657 310.921 310.634 311.441 310.536 311.944V311.944Z" fill="black"/>
<path d="M312.486 310.209C311.595 309.891 310.738 309.451 309.934 308.899C309.805 308.793 309.659 308.72 309.505 308.684C309.295 308.681 309.088 308.742 308.905 308.862C307.012 309.817 304.875 309.87 302.949 309.009C302.68 308.9 302.429 308.74 302.204 308.535C302.018 308.31 301.821 308.1 301.613 307.903C300.877 307.345 299.859 308 299.035 307.641C298.889 307.564 298.739 307.497 298.587 307.439C297.936 307.248 297.274 308.008 296.633 307.777C296.395 308.535 296.219 309.318 296.107 310.115C296.016 311.03 295.968 311.951 295.962 312.872C295.962 313.425 295.94 313.978 295.962 314.531C296.041 314.546 296.116 314.58 296.183 314.631C296.25 314.682 296.308 314.749 296.351 314.827C296.381 314.919 296.393 315.016 296.387 315.114C296.38 315.211 296.356 315.305 296.316 315.391C295.848 316.798 295.373 318.221 294.664 319.482C295.164 319.831 295.628 320.246 296.047 320.719C296.83 321.689 297.215 323.049 298.061 323.945C299.015 324.954 300.373 325.2 301.642 325.4L304.836 325.9C305.377 326.019 305.93 326.041 306.477 325.966C306.78 325.901 307.074 325.789 307.352 325.633C307.533 325.544 307.699 325.416 307.84 325.255C307.958 325.099 308.055 324.922 308.128 324.731C308.381 324.139 308.612 323.534 308.824 322.92C308.898 322.703 309.01 322.449 309.212 322.43C310.398 321.177 311.517 319.893 312.703 318.64C313.18 318.178 313.607 317.65 313.976 317.068C314.565 316.048 314.03 314.604 313.976 313.373C313.97 313.058 313.936 312.744 313.876 312.437C313.683 311.543 313.231 310.474 312.486 310.209Z" fill="#2477A6"/>
<path opacity="0.1" d="M293.484 304.965C293.305 305.384 292.876 305.586 292.544 305.851L291.41 306.763C291.334 306.843 291.245 306.904 291.148 306.943C291.052 306.982 290.95 306.997 290.848 306.988C290.756 306.948 290.671 306.887 290.599 306.808C290.527 306.73 290.47 306.635 290.429 306.53C290.429 306.469 290.429 306.404 290.429 306.341C290.421 306.129 290.445 305.917 290.501 305.715C290.612 305.418 290.784 305.159 291.002 304.96C291.424 304.493 291.925 304.135 292.473 303.911C292.558 303.873 292.651 303.862 292.741 303.88C292.776 303.891 292.809 303.907 292.84 303.93C292.92 304.032 292.988 304.147 293.041 304.271C293.131 304.485 293.576 304.75 293.484 304.965Z" fill="black"/>
<path d="M296.157 307.727C295.776 307.706 295.465 307.384 295.188 307.077L294.339 306.155C294.283 306.099 294.233 306.033 294.192 305.961C294.146 305.859 294.111 305.751 294.089 305.639C293.909 305.109 293.627 304.636 293.265 304.255C293.202 304.161 293.117 304.09 293.021 304.05C292.93 304.031 292.836 304.042 292.75 304.082C292.202 304.305 291.701 304.663 291.28 305.13C291.062 305.329 290.89 305.589 290.779 305.885C290.722 306.087 290.698 306.299 290.707 306.511C290.712 307.204 290.845 307.887 291.096 308.514C291.134 308.611 291.177 308.708 291.222 308.802C291.52 309.38 291.873 309.917 292.274 310.403L292.806 311.1C293.33 311.787 293.854 312.474 294.422 313.105C294.626 313.36 294.873 313.562 295.147 313.698C295.285 313.763 295.436 313.784 295.582 313.756C295.729 313.728 295.867 313.654 295.98 313.54C296.087 313.395 296.168 313.226 296.217 313.042C296.562 311.994 296.889 310.904 296.909 309.774C296.914 309.322 296.897 308.87 296.859 308.419C296.826 307.942 296.537 307.756 296.157 307.727Z" fill="#2477A6"/>
<path d="M309.72 344.419C309.707 347.055 309.547 349.688 309.241 352.3C309.196 352.722 309.147 353.144 309.122 353.566C309.048 354.79 309.169 356.019 309.071 357.235C309.019 357.893 308.903 358.545 308.804 359.187C308.367 362.053 308.239 364.972 308.424 367.875C308.733 372.706 307.786 377.538 308.216 382.355C308.268 383.292 308.223 384.233 308.084 385.157C308.003 385.731 307.888 386.296 307.737 386.85C307.41 388.162 307.082 389.473 306.752 390.781C306.713 390.98 306.637 391.167 306.528 391.326C306.414 391.442 306.28 391.528 306.135 391.578C305.991 391.628 305.838 391.642 305.689 391.617C304.397 391.57 303.182 390.918 302.009 390.281C301.874 390.218 301.75 390.13 301.64 390.019C301.396 389.723 301.416 389.256 301.309 388.866C301.201 388.475 300.91 388.108 300.745 387.707C300.609 387.328 300.526 386.925 300.501 386.515C300.352 385.173 300.25 383.826 300.196 382.473C300.111 380.571 301.186 378.82 301.539 376.97C302.211 373.332 301.642 369.432 302.835 365.98C303.211 364.89 302.665 363.569 302.611 362.395C302.592 361.638 302.508 360.884 302.361 360.147C302.137 359.161 301.665 358.233 301.631 357.211C301.606 356.472 301.81 355.751 301.915 355.023C302.055 353.951 302.042 352.859 301.877 351.791C301.759 350.911 301.577 350.03 301.396 349.17L301.356 349.267C300.811 350.516 300.342 351.807 299.953 353.133C299.773 353.775 299.617 354.43 299.393 355.054C299.209 355.578 298.983 356.058 298.762 356.551C297.967 358.288 297.275 360.088 296.692 361.937C296.414 362.843 296.17 363.771 295.928 364.681L294.27 370.971C293.822 372.624 293.332 374.223 292.894 375.874C292.274 378.233 291.654 380.571 290.933 382.877C290.262 385.065 289.463 387.332 289.702 389.644C289.085 389.984 288.407 390.144 287.726 390.113C286.572 389.994 285.441 389.672 284.369 389.159C283.941 388.973 283.498 388.763 283.209 388.352C282.712 387.642 282.836 386.601 282.986 385.697C283.042 385.289 283.132 384.889 283.254 384.502C283.424 384.02 283.702 383.592 283.876 383.115C284.228 382.201 284.25 381.166 284.389 380.172C284.528 379.179 284.836 378.131 285.562 377.591C285.685 375.845 286.298 374.123 286.636 372.417C286.891 371.125 286.976 369.796 287.177 368.486C287.379 367.176 287.703 365.865 288.379 364.804C288.326 363.709 288.537 362.619 288.988 361.659C289.097 361.448 289.186 361.224 289.254 360.99C289.296 360.763 289.32 360.531 289.326 360.299C289.4 359.388 289.733 358.532 290.271 357.869C290.047 356.912 290.358 355.914 290.638 354.986C290.99 353.802 291.149 352.551 291.108 351.299C291.073 350.949 291.087 350.595 291.15 350.25C291.213 349.988 291.336 349.765 291.407 349.514C291.471 349.206 291.505 348.89 291.508 348.573C291.595 347.155 292.086 345.818 292.627 344.553C292.95 343.814 292.676 342.81 292.744 341.987C292.86 340.619 292.988 339.203 293.567 338.011C293.675 337.786 293.791 337.571 293.887 337.337C294.004 337.004 294.067 336.649 294.073 336.289C294.093 335.689 294.165 335.191 293.981 334.633C295.179 333.466 296.812 333.139 298.37 333.06C299.928 332.982 301.504 333.147 303.028 332.759C303.475 332.641 303.923 332.478 304.395 332.4C305.467 332.216 306.555 332.502 307.614 332.785C307.54 333.571 307.786 334.326 308.061 335.057C309.136 338.019 309.7 341.201 309.72 344.419V344.419Z" fill="#33313F"/>
<path opacity="0.1" d="M304.449 345.019L301.877 351.791C301.759 350.911 301.577 350.03 301.396 349.17L301.356 349.267V349.126L302.757 345.517L304.449 345.019Z" fill="black"/>
<path opacity="0.1" d="M312.155 330.872C312.006 331.002 311.829 331.079 311.644 331.095C311.361 331.106 311.078 331.061 310.807 330.961L308.793 330.371C308.73 330.353 308.668 330.328 308.609 330.295C308.643 329.884 308.71 329.407 308.9 329.247C309.185 329.024 310.035 329.323 310.357 329.375C310.912 329.464 311.476 329.569 312.018 329.692C312.102 330.078 312.148 330.474 312.155 330.872V330.872Z" fill="black"/>
<path d="M313.858 315.278C313.9 315.495 313.961 315.71 313.997 315.931C314.057 316.471 314.041 317.019 313.95 317.553L313.766 319.052L313.582 320.559L312.873 326.359L312.698 327.795L312.452 329.8C312.441 329.967 312.404 330.13 312.345 330.282C312.272 330.425 312.169 330.544 312.047 330.628C311.925 330.713 311.786 330.761 311.644 330.767C311.361 330.778 311.078 330.732 310.807 330.633L308.793 330.041C308.705 330.023 308.621 329.982 308.547 329.923C308.485 329.853 308.441 329.764 308.418 329.667C308.395 329.57 308.395 329.468 308.417 329.37C308.446 329.171 308.52 328.985 308.545 328.786C308.594 328.398 308.455 327.999 308.504 327.614C308.553 327.369 308.628 327.132 308.728 326.909C309.399 325.172 309.01 323.143 309.238 321.256C309.444 319.771 309.979 318.375 310.792 317.21C311.293 316.474 311.868 315.812 312.506 315.239C312.757 315.011 313.155 314.542 313.471 314.452C313.876 314.353 313.791 314.948 313.858 315.278Z" fill="#2477A6"/>
<path d="M298.614 292.702C298.466 293.253 298.697 293.858 298.592 294.419C298.478 295.037 297.981 295.467 297.84 296.088C297.616 297.034 298.301 297.897 298.802 298.683C300.66 301.602 300.416 305.644 299.78 309.206C299.269 312.063 298.561 314.868 297.665 317.592C297.385 318.439 297.077 319.298 296.526 319.933C297.556 319.587 298.65 319.238 299.682 319.573C300.989 319.998 302.117 321.484 303.442 321.146C304.238 320.939 304.798 320.111 305.514 319.652C306.857 318.806 308.475 319.338 309.972 319.61C310.295 319.699 310.633 319.679 310.946 319.553C311.186 319.402 311.389 319.183 311.537 318.916C312.205 317.912 312.605 316.699 312.687 315.43C312.723 314.798 312.643 314.164 312.454 313.571C312.264 312.978 311.969 312.439 311.588 311.989C311.271 311.638 310.89 311.355 310.646 310.94C310.409 310.457 310.282 309.91 310.277 309.352C310.1 306.469 310.7 303.526 310.082 300.738C309.858 299.744 309.494 298.793 309.395 297.776C309.272 296.51 309.565 295.155 309.135 293.997C308.797 293.077 308.052 292.424 307.249 292.089C306.445 291.753 305.586 291.659 304.733 291.565C303.507 291.444 299.127 290.828 298.614 292.702Z" fill="#33313F"/>
<g opacity="0.1">
<path opacity="0.1" d="M299.78 309.206C299.271 312.051 298.568 314.844 297.676 317.558C297.831 317.199 297.961 316.822 298.084 316.447C298.981 313.723 299.688 310.918 300.199 308.06C300.837 304.496 301.081 300.46 299.223 297.538C298.775 296.84 298.2 296.086 298.22 295.268C298.055 295.515 297.926 295.793 297.84 296.091C297.616 297.037 298.301 297.899 298.802 298.686C300.66 301.602 300.416 305.644 299.78 309.206Z" fill="black"/>
<path opacity="0.1" d="M298.619 294.154C298.798 293.893 298.932 293.593 299.013 293.271C299.047 292.882 299.038 292.489 298.986 292.102C298.813 292.254 298.684 292.463 298.614 292.702C298.482 293.166 298.634 293.669 298.619 294.154Z" fill="black"/>
<path opacity="0.1" d="M311.958 317.762C311.809 318.029 311.606 318.247 311.367 318.397C311.054 318.526 310.716 318.546 310.393 318.454C308.896 318.192 307.26 317.652 305.935 318.499C305.217 318.955 304.659 319.783 303.86 319.993C302.538 320.339 301.41 318.853 300.102 318.42C299.176 318.119 298.2 318.368 297.267 318.682C297.081 319.146 296.831 319.569 296.526 319.935C297.556 319.589 298.65 319.241 299.682 319.576C300.989 320.001 302.117 321.487 303.442 321.149C304.238 320.942 304.798 320.113 305.514 319.655C306.857 318.808 308.475 319.34 309.972 319.613C310.295 319.702 310.633 319.682 310.946 319.555C311.186 319.404 311.389 319.185 311.537 318.918C311.943 318.292 312.256 317.59 312.463 316.843C312.314 317.163 312.145 317.47 311.958 317.762Z" fill="black"/>
</g>
</g>
<g filter="url(#filter0_d)">
<rect width="52.7306" height="56.3098" transform="matrix(0.989512 0.144453 -0.330499 0.943806 316.61 110)" fill="#2477A6" fill-opacity="0.4" shape-rendering="crispEdges"/>
</g>
<g filter="url(#filter1_d)">
<rect width="52.73" height="63.5089" transform="matrix(0.989576 -0.144011 0.315767 0.948837 122 113.594)" fill="#2477A6" fill-opacity="0.4" shape-rendering="crispEdges"/>
</g>
<g filter="url(#filter2_d)">
<line x1="193.998" y1="139.845" x2="286.995" y2="139.155" stroke="#2477A6" stroke-opacity="0.4" shape-rendering="crispEdges"/>
</g>
<defs>
<filter id="filter0_d" x="294" y="110" width="78.7879" height="68.7626" filterUnits="userSpaceOnUse" color-interpolation-filters="sRGB">
<feFlood flood-opacity="0" result="BackgroundImageFix"/>
<feColorMatrix in="SourceAlpha" type="matrix" values="0 0 0 0 0 0 0 0 0 0 0 0 0 0 0 0 0 0 127 0" result="hardAlpha"/>
<feOffset dy="4"/>
<feGaussianBlur stdDeviation="2"/>
<feComposite in2="hardAlpha" operator="out"/>
<feColorMatrix type="matrix" values="0 0 0 0 0 0 0 0 0 0 0 0 0 0 0 0 0 0 0.25 0"/>
<feBlend mode="normal" in2="BackgroundImageFix" result="effect1_dropShadow"/>
<feBlend mode="normal" in="SourceGraphic" in2="effect1_dropShadow" result="shape"/>
</filter>
<filter id="filter1_d" x="118" y="106" width="80.2344" height="75.8533" filterUnits="userSpaceOnUse" color-interpolation-filters="sRGB">
<feFlood flood-opacity="0" result="BackgroundImageFix"/>
<feColorMatrix in="SourceAlpha" type="matrix" values="0 0 0 0 0 0 0 0 0 0 0 0 0 0 0 0 0 0 127 0" result="hardAlpha"/>
<feOffset dy="4"/>
<feGaussianBlur stdDeviation="2"/>
<feComposite in2="hardAlpha" operator="out"/>
<feColorMatrix type="matrix" values="0 0 0 0 0 0 0 0 0 0 0 0 0 0 0 0 0 0 0.25 0"/>
<feBlend mode="normal" in2="BackgroundImageFix" result="effect1_dropShadow"/>
<feBlend mode="normal" in="SourceGraphic" in2="effect1_dropShadow" result="shape"/>
</filter>
<filter id="filter2_d" x="189.994" y="138.655" width="101.005" height="9.69014" filterUnits="userSpaceOnUse" color-interpolation-filters="sRGB">
<feFlood flood-opacity="0" result="BackgroundImageFix"/>
<feColorMatrix in="SourceAlpha" type="matrix" values="0 0 0 0 0 0 0 0 0 0 0 0 0 0 0 0 0 0 127 0" result="hardAlpha"/>
<feOffset dy="4"/>
<feGaussianBlur stdDeviation="2"/>
<feComposite in2="hardAlpha" operator="out"/>
<feColorMatrix type="matrix" values="0 0 0 0 0 0 0 0 0 0 0 0 0 0 0 0 0 0 0.25 0"/>
<feBlend mode="normal" in2="BackgroundImageFix" result="effect1_dropShadow"/>
<feBlend mode="normal" in="SourceGraphic" in2="effect1_dropShadow" result="shape"/>
</filter>
<linearGradient id="paint0_linear" x1="239" y1="0" x2="239" y2="439" gradientUnits="userSpaceOnUse">
<stop stop-color="#2D9CDB"/>
<stop offset="1" stop-color="#2FA1E2"/>
</linearGradient>
<linearGradient id="paint1_linear" x1="280.02" y1="341.505" x2="314.263" y2="341.505" gradientUnits="userSpaceOnUse">
<stop stop-color="#808080" stop-opacity="0.25"/>
<stop offset="0.54" stop-color="#808080" stop-opacity="0.12"/>
<stop offset="1" stop-color="#808080" stop-opacity="0.1"/>
</linearGradient>
<clipPath id="clip0">
<rect width="261" height="211" fill="white" transform="translate(108 181)"/>
</clipPath>
</defs>
</svg>
