<svg width="478" height="439" viewBox="0 0 478 439" fill="none" xmlns="http://www.w3.org/2000/svg">
<rect width="478" height="439" fill="url(#paint0_linear)"/>
<g clip-path="url(#clip0)">
<path opacity="0.1" d="M255.629 209.726C238.899 209.753 222.796 204.199 207.394 198.03C191.991 191.86 176.707 184.952 160.289 182.024C149.729 180.142 137.722 180.315 129.468 187.148C121.523 193.721 119.222 204.6 118.112 214.651C117.277 222.212 116.892 230.148 120.019 237.064C122.19 241.866 125.905 245.823 128.523 250.399C137.664 266.318 132.167 286.653 123.284 302.941C119.119 310.584 114.24 317.909 111.091 325.989C107.942 334.069 106.65 343.231 109.862 351.206C113.045 359.111 120.233 364.848 127.948 368.766C143.615 376.738 161.855 378.447 179.606 379.105C218.898 380.565 258.266 377.588 297.529 374.61C312.058 373.51 326.653 372.401 340.883 369.211C348.783 367.442 356.919 364.816 362.521 359.061C369.631 351.754 371.086 339.824 365.911 331.249C357.234 316.866 334.354 314.153 328.132 298.591C324.701 290.023 327.66 280.198 332.018 271.94C341.364 254.22 357.451 238.348 357.722 218.53C357.908 204.92 349.542 191.643 337.047 185.727C323.949 179.532 306.092 181.125 296.915 192.673C287.48 204.569 270.401 209.708 255.629 209.726Z" fill="#2477A6"/>
<path d="M340.628 203.337H125.574C125.065 203.337 124.578 203.574 124.219 203.994C123.86 204.415 123.658 204.986 123.658 205.581V212.117H342.543V205.581C342.543 204.986 342.342 204.415 341.982 203.994C341.623 203.574 341.136 203.337 340.628 203.337V203.337Z" fill="#3F3D56"/>
<path d="M123.658 212.117V359.208C123.658 360.408 124.065 361.559 124.789 362.407C125.514 363.255 126.496 363.732 127.521 363.732H338.681C339.705 363.732 340.688 363.255 341.412 362.407C342.136 361.559 342.543 360.408 342.543 359.208V212.117H123.658Z" fill="white"/>
<path opacity="0.8" d="M127.125 208.71C127.619 208.71 128.02 208.241 128.02 207.662C128.02 207.083 127.619 206.613 127.125 206.613C126.63 206.613 126.229 207.083 126.229 207.662C126.229 208.241 126.63 208.71 127.125 208.71Z" fill="#FA5959"/>
<path opacity="0.8" d="M129.586 208.71C130.081 208.71 130.482 208.241 130.482 207.662C130.482 207.083 130.081 206.613 129.586 206.613C129.092 206.613 128.691 207.083 128.691 207.662C128.691 208.241 129.092 208.71 129.586 208.71Z" fill="#FED253"/>
<path opacity="0.8" d="M132.048 208.71C132.543 208.71 132.944 208.241 132.944 207.662C132.944 207.083 132.543 206.613 132.048 206.613C131.554 206.613 131.153 207.083 131.153 207.662C131.153 208.241 131.554 208.71 132.048 208.71Z" fill="#8CCF4D"/>
<path opacity="0.05" d="M319.919 236.643H144.004V327.224H319.919V236.643Z" fill="black"/>
<path d="M318.576 237.329H145.347V325.913H318.576V237.329Z" fill="#3F3D56"/>
<path d="M192.571 260.128C189.162 260.128 185.831 261.312 182.997 263.529C180.163 265.746 177.954 268.898 176.649 272.586C175.345 276.273 175.004 280.331 175.669 284.245C176.334 288.16 177.975 291.756 180.385 294.578C182.795 297.4 185.866 299.322 189.209 300.101C192.552 300.88 196.017 300.48 199.166 298.953C202.315 297.425 205.006 294.839 206.9 291.52C208.794 288.201 209.804 284.3 209.804 280.308C209.804 277.658 209.359 275.034 208.492 272.586C207.626 270.137 206.357 267.913 204.757 266.039C203.156 264.165 201.257 262.678 199.166 261.664C197.075 260.65 194.834 260.128 192.571 260.128V260.128ZM195.662 280.793V290.349H189.57V280.793C188.727 280.046 188.105 279.007 187.793 277.824C187.481 276.641 187.495 275.373 187.831 274.2C188.168 273.026 188.811 272.006 189.669 271.283C190.528 270.56 191.558 270.171 192.616 270.171C193.673 270.171 194.704 270.56 195.562 271.283C196.421 272.006 197.063 273.026 197.4 274.2C197.737 275.373 197.75 276.641 197.438 277.824C197.126 279.007 196.505 280.046 195.662 280.793V280.793Z" fill="#2477A6"/>
<path opacity="0.05" d="M192.571 260.128C189.162 260.128 185.831 261.312 182.997 263.529C180.163 265.746 177.954 268.898 176.649 272.586C175.345 276.273 175.004 280.331 175.669 284.245C176.334 288.16 177.975 291.756 180.385 294.578C182.795 297.4 185.866 299.322 189.209 300.101C192.552 300.88 196.017 300.48 199.166 298.953C202.315 297.425 205.006 294.839 206.9 291.52C208.794 288.201 209.804 284.3 209.804 280.308C209.804 277.658 209.359 275.034 208.492 272.586C207.626 270.137 206.357 267.913 204.757 266.039C203.156 264.165 201.257 262.678 199.166 261.664C197.075 260.65 194.834 260.128 192.571 260.128V260.128ZM195.662 280.793V290.349H189.57V280.793C188.727 280.046 188.105 279.007 187.793 277.824C187.481 276.641 187.495 275.373 187.831 274.2C188.168 273.026 188.811 272.006 189.669 271.283C190.528 270.56 191.558 270.171 192.616 270.171C193.673 270.171 194.704 270.56 195.562 271.283C196.421 272.006 197.063 273.026 197.4 274.2C197.737 275.373 197.75 276.641 197.438 277.824C197.126 279.007 196.505 280.046 195.662 280.793V280.793Z" fill="black"/>
<path d="M192.571 254.362C188.189 254.362 183.905 255.884 180.261 258.735C176.617 261.586 173.777 265.638 172.1 270.379C170.423 275.12 169.985 280.337 170.84 285.37C171.694 290.403 173.805 295.026 176.903 298.655C180.002 302.284 183.95 304.755 188.248 305.756C192.546 306.757 197.001 306.243 201.05 304.279C205.099 302.316 208.559 298.99 210.994 294.723C213.429 290.456 214.728 285.44 214.728 280.308C214.728 273.427 212.394 266.827 208.238 261.962C204.083 257.096 198.447 254.362 192.571 254.362V254.362ZM196.544 280.932V293.216H188.71V280.932C187.626 279.971 186.827 278.636 186.425 277.114C186.024 275.593 186.041 273.962 186.474 272.452C186.907 270.943 187.733 269.631 188.838 268.701C189.942 267.771 191.267 267.271 192.627 267.271C193.987 267.271 195.312 267.771 196.416 268.701C197.52 269.631 198.347 270.943 198.78 272.452C199.213 273.962 199.23 275.593 198.828 277.114C198.427 278.636 197.628 279.971 196.544 280.932V280.932Z" fill="#2477A6"/>
<path d="M295.523 276.904H223.904V285.815H295.523V276.904Z" fill="white"/>
<path d="M295.523 293.153H280.08V302.064H295.523V293.153Z" fill="#2477A6"/>
<path d="M230.954 281.226H229.658L230.811 279.878C230.832 279.854 230.843 279.82 230.843 279.785C230.843 279.751 230.832 279.717 230.811 279.692C230.801 279.68 230.788 279.67 230.775 279.664C230.761 279.657 230.746 279.654 230.732 279.654C230.717 279.654 230.702 279.657 230.689 279.664C230.675 279.67 230.663 279.68 230.652 279.692L229.5 281.042V279.522C229.5 279.487 229.488 279.454 229.467 279.429C229.446 279.405 229.417 279.391 229.388 279.391C229.358 279.392 229.33 279.406 229.309 279.43C229.288 279.455 229.276 279.488 229.276 279.522V281.042L228.125 279.685C228.115 279.672 228.103 279.663 228.089 279.656C228.075 279.649 228.061 279.646 228.046 279.646C228.031 279.646 228.016 279.649 228.003 279.656C227.989 279.663 227.977 279.672 227.966 279.685C227.946 279.709 227.934 279.743 227.934 279.778C227.934 279.812 227.946 279.846 227.966 279.871L229.119 281.218H227.821C227.791 281.218 227.763 281.232 227.742 281.257C227.722 281.281 227.71 281.314 227.709 281.349C227.709 281.384 227.721 281.417 227.742 281.441C227.763 281.466 227.791 281.48 227.821 281.48H229.119L227.966 282.83C227.946 282.854 227.934 282.888 227.934 282.923C227.934 282.957 227.946 282.991 227.966 283.016C227.988 283.039 228.016 283.052 228.046 283.052C228.075 283.052 228.104 283.039 228.125 283.016L229.276 281.666V283.183C229.276 283.218 229.287 283.251 229.308 283.276C229.329 283.301 229.358 283.314 229.388 283.314C229.417 283.314 229.446 283.301 229.467 283.276C229.488 283.251 229.5 283.218 229.5 283.183V281.666L230.652 283.016C230.674 283.039 230.702 283.052 230.732 283.052C230.761 283.052 230.789 283.039 230.811 283.016C230.832 282.991 230.843 282.957 230.843 282.923C230.843 282.888 230.832 282.854 230.811 282.83L229.658 281.48H230.954C230.984 281.48 231.012 281.466 231.033 281.441C231.054 281.417 231.066 281.384 231.066 281.349C231.064 281.315 231.052 281.284 231.031 281.261C231.01 281.238 230.983 281.226 230.954 281.226Z" fill="#2477A6"/>
<path d="M235.654 281.226H234.358L235.511 279.878C235.532 279.854 235.543 279.82 235.543 279.785C235.543 279.751 235.532 279.717 235.511 279.692C235.501 279.68 235.488 279.67 235.475 279.664C235.461 279.657 235.446 279.654 235.432 279.654C235.417 279.654 235.402 279.657 235.389 279.664C235.375 279.67 235.363 279.68 235.352 279.692L234.2 281.042V279.522C234.2 279.487 234.188 279.454 234.167 279.429C234.146 279.405 234.117 279.391 234.088 279.391C234.058 279.392 234.03 279.406 234.009 279.43C233.988 279.455 233.976 279.488 233.976 279.522V281.042L232.825 279.685C232.815 279.672 232.803 279.663 232.789 279.656C232.775 279.649 232.761 279.646 232.746 279.646C232.731 279.646 232.716 279.649 232.703 279.656C232.689 279.663 232.677 279.672 232.666 279.685C232.646 279.709 232.634 279.743 232.634 279.778C232.634 279.812 232.646 279.846 232.666 279.871L233.819 281.218H232.521C232.491 281.218 232.463 281.232 232.442 281.257C232.422 281.281 232.41 281.314 232.409 281.349C232.409 281.384 232.421 281.417 232.442 281.441C232.463 281.466 232.491 281.48 232.521 281.48H233.819L232.666 282.83C232.646 282.854 232.634 282.888 232.634 282.923C232.634 282.957 232.646 282.991 232.666 283.016C232.688 283.039 232.716 283.052 232.746 283.052C232.775 283.052 232.804 283.039 232.825 283.016L233.976 281.666V283.183C233.976 283.218 233.987 283.251 234.008 283.276C234.029 283.301 234.058 283.314 234.088 283.314C234.117 283.314 234.146 283.301 234.167 283.276C234.188 283.251 234.2 283.218 234.2 283.183V281.666L235.352 283.016C235.374 283.039 235.402 283.052 235.432 283.052C235.461 283.052 235.489 283.039 235.511 283.016C235.532 282.991 235.543 282.957 235.543 282.923C235.543 282.888 235.532 282.854 235.511 282.83L234.358 281.48H235.654C235.684 281.48 235.712 281.466 235.733 281.441C235.754 281.417 235.766 281.384 235.766 281.349C235.764 281.315 235.752 281.284 235.731 281.261C235.71 281.238 235.683 281.226 235.654 281.226Z" fill="#2477A6"/>
<path d="M240.354 281.226H239.058L240.211 279.878C240.232 279.854 240.243 279.82 240.243 279.785C240.243 279.751 240.232 279.717 240.211 279.692C240.201 279.68 240.188 279.67 240.175 279.664C240.161 279.657 240.146 279.654 240.132 279.654C240.117 279.654 240.102 279.657 240.089 279.664C240.075 279.67 240.063 279.68 240.052 279.692L238.9 281.042V279.522C238.9 279.487 238.888 279.454 238.867 279.429C238.846 279.405 238.817 279.391 238.788 279.391C238.758 279.392 238.73 279.406 238.709 279.43C238.688 279.455 238.676 279.488 238.676 279.522V281.042L237.525 279.685C237.515 279.672 237.503 279.663 237.489 279.656C237.475 279.649 237.461 279.646 237.446 279.646C237.431 279.646 237.416 279.649 237.403 279.656C237.389 279.663 237.377 279.672 237.366 279.685C237.346 279.709 237.334 279.743 237.334 279.778C237.334 279.812 237.346 279.846 237.366 279.871L238.519 281.218H237.221C237.191 281.218 237.163 281.232 237.142 281.257C237.122 281.281 237.11 281.314 237.109 281.349C237.109 281.384 237.121 281.417 237.142 281.441C237.163 281.466 237.191 281.48 237.221 281.48H238.519L237.366 282.83C237.346 282.854 237.334 282.888 237.334 282.923C237.334 282.957 237.346 282.991 237.366 283.016C237.388 283.039 237.416 283.052 237.446 283.052C237.475 283.052 237.504 283.039 237.525 283.016L238.676 281.666V283.183C238.676 283.218 238.687 283.251 238.708 283.276C238.729 283.301 238.758 283.314 238.788 283.314C238.817 283.314 238.846 283.301 238.867 283.276C238.888 283.251 238.9 283.218 238.9 283.183V281.666L240.052 283.016C240.074 283.039 240.102 283.052 240.132 283.052C240.161 283.052 240.189 283.039 240.211 283.016C240.232 282.991 240.243 282.957 240.243 282.923C240.243 282.888 240.232 282.854 240.211 282.83L239.058 281.48H240.354C240.384 281.48 240.412 281.466 240.433 281.441C240.454 281.417 240.466 281.384 240.466 281.349C240.464 281.315 240.452 281.284 240.431 281.261C240.41 281.238 240.383 281.226 240.354 281.226Z" fill="#2477A6"/>
<path d="M245.054 281.226H243.758L244.911 279.878C244.932 279.854 244.943 279.82 244.943 279.785C244.943 279.751 244.932 279.717 244.911 279.692C244.901 279.68 244.888 279.67 244.875 279.664C244.861 279.657 244.846 279.654 244.832 279.654C244.817 279.654 244.802 279.657 244.789 279.664C244.775 279.67 244.763 279.68 244.752 279.692L243.599 281.042V279.522C243.599 279.487 243.588 279.454 243.567 279.429C243.546 279.405 243.517 279.391 243.488 279.391C243.458 279.392 243.43 279.406 243.409 279.43C243.388 279.455 243.376 279.488 243.376 279.522V281.042L242.225 279.685C242.215 279.672 242.203 279.663 242.189 279.656C242.175 279.649 242.161 279.646 242.146 279.646C242.131 279.646 242.116 279.649 242.103 279.656C242.089 279.663 242.077 279.672 242.066 279.685C242.046 279.709 242.034 279.743 242.034 279.778C242.034 279.812 242.046 279.846 242.066 279.871L243.219 281.218H241.921C241.891 281.218 241.863 281.232 241.842 281.257C241.822 281.281 241.81 281.314 241.809 281.349C241.809 281.384 241.821 281.417 241.842 281.441C241.863 281.466 241.891 281.48 241.921 281.48H243.219L242.066 282.83C242.046 282.854 242.034 282.888 242.034 282.923C242.034 282.957 242.046 282.991 242.066 283.016C242.088 283.039 242.116 283.052 242.146 283.052C242.175 283.052 242.204 283.039 242.225 283.016L243.376 281.666V283.183C243.376 283.218 243.387 283.251 243.408 283.276C243.429 283.301 243.458 283.314 243.488 283.314C243.517 283.314 243.546 283.301 243.567 283.276C243.588 283.251 243.599 283.218 243.599 283.183V281.666L244.752 283.016C244.774 283.039 244.802 283.052 244.832 283.052C244.861 283.052 244.889 283.039 244.911 283.016C244.932 282.991 244.943 282.957 244.943 282.923C244.943 282.888 244.932 282.854 244.911 282.83L243.758 281.48H245.054C245.084 281.48 245.112 281.466 245.133 281.441C245.154 281.417 245.166 281.384 245.166 281.349C245.164 281.315 245.152 281.284 245.131 281.261C245.11 281.238 245.083 281.226 245.054 281.226Z" fill="#2477A6"/>
<path d="M249.754 281.226H248.458L249.611 279.878C249.632 279.854 249.643 279.82 249.643 279.785C249.643 279.751 249.632 279.717 249.611 279.692C249.601 279.68 249.588 279.67 249.575 279.664C249.561 279.657 249.546 279.654 249.532 279.654C249.517 279.654 249.502 279.657 249.489 279.664C249.475 279.67 249.463 279.68 249.452 279.692L248.3 281.042V279.522C248.3 279.487 248.288 279.454 248.267 279.429C248.246 279.405 248.217 279.391 248.188 279.391C248.158 279.392 248.13 279.406 248.109 279.43C248.088 279.455 248.076 279.488 248.076 279.522V281.042L246.925 279.685C246.915 279.672 246.903 279.663 246.889 279.656C246.875 279.649 246.861 279.646 246.846 279.646C246.831 279.646 246.816 279.649 246.803 279.656C246.789 279.663 246.777 279.672 246.766 279.685C246.746 279.709 246.734 279.743 246.734 279.778C246.734 279.812 246.746 279.846 246.766 279.871L247.919 281.218H246.621C246.591 281.218 246.563 281.232 246.542 281.257C246.522 281.281 246.51 281.314 246.509 281.349C246.509 281.384 246.521 281.417 246.542 281.441C246.563 281.466 246.591 281.48 246.621 281.48H247.919L246.766 282.83C246.746 282.854 246.734 282.888 246.734 282.923C246.734 282.957 246.746 282.991 246.766 283.016C246.788 283.039 246.816 283.052 246.846 283.052C246.875 283.052 246.904 283.039 246.925 283.016L248.076 281.666V283.183C248.076 283.218 248.087 283.251 248.108 283.276C248.129 283.301 248.158 283.314 248.188 283.314C248.217 283.314 248.246 283.301 248.267 283.276C248.288 283.251 248.3 283.218 248.3 283.183V281.666L249.452 283.016C249.474 283.039 249.502 283.052 249.532 283.052C249.561 283.052 249.589 283.039 249.611 283.016C249.632 282.991 249.643 282.957 249.643 282.923C249.643 282.888 249.632 282.854 249.611 282.83L248.458 281.48H249.754C249.784 281.48 249.812 281.466 249.833 281.441C249.854 281.417 249.866 281.384 249.866 281.349C249.864 281.315 249.852 281.284 249.831 281.261C249.81 281.238 249.783 281.226 249.754 281.226Z" fill="#2477A6"/>
<path d="M254.454 281.226H253.158L254.311 279.878C254.332 279.854 254.343 279.82 254.343 279.785C254.343 279.751 254.332 279.717 254.311 279.692C254.301 279.68 254.288 279.67 254.275 279.664C254.261 279.657 254.246 279.654 254.232 279.654C254.217 279.654 254.202 279.657 254.189 279.664C254.175 279.67 254.163 279.68 254.152 279.692L253 281.042V279.522C253 279.487 252.988 279.454 252.967 279.429C252.946 279.405 252.917 279.391 252.888 279.391C252.858 279.392 252.83 279.406 252.809 279.43C252.788 279.455 252.776 279.488 252.776 279.522V281.042L251.625 279.685C251.615 279.672 251.603 279.663 251.589 279.656C251.575 279.649 251.561 279.646 251.546 279.646C251.531 279.646 251.516 279.649 251.503 279.656C251.489 279.663 251.477 279.672 251.466 279.685C251.446 279.709 251.434 279.743 251.434 279.778C251.434 279.812 251.446 279.846 251.466 279.871L252.619 281.218H251.321C251.291 281.218 251.263 281.232 251.242 281.257C251.222 281.281 251.21 281.314 251.209 281.349C251.209 281.384 251.221 281.417 251.242 281.441C251.263 281.466 251.291 281.48 251.321 281.48H252.619L251.466 282.83C251.446 282.854 251.434 282.888 251.434 282.923C251.434 282.957 251.446 282.991 251.466 283.016C251.488 283.039 251.516 283.052 251.546 283.052C251.575 283.052 251.604 283.039 251.625 283.016L252.776 281.666V283.183C252.776 283.218 252.787 283.251 252.808 283.276C252.829 283.301 252.858 283.314 252.888 283.314C252.917 283.314 252.946 283.301 252.967 283.276C252.988 283.251 253 283.218 253 283.183V281.666L254.152 283.016C254.174 283.039 254.202 283.052 254.232 283.052C254.261 283.052 254.289 283.039 254.311 283.016C254.332 282.991 254.343 282.957 254.343 282.923C254.343 282.888 254.332 282.854 254.311 282.83L253.158 281.48H254.454C254.484 281.48 254.512 281.466 254.533 281.441C254.554 281.417 254.566 281.384 254.566 281.349C254.564 281.315 254.552 281.284 254.531 281.261C254.51 281.238 254.483 281.226 254.454 281.226Z" fill="#2477A6"/>
<path d="M259.154 281.226H257.858L259.011 279.878C259.032 279.854 259.043 279.82 259.043 279.785C259.043 279.751 259.032 279.717 259.011 279.692C259.001 279.68 258.988 279.67 258.975 279.664C258.961 279.657 258.946 279.654 258.932 279.654C258.917 279.654 258.902 279.657 258.889 279.664C258.875 279.67 258.863 279.68 258.852 279.692L257.7 281.042V279.522C257.7 279.487 257.688 279.454 257.667 279.429C257.646 279.405 257.617 279.391 257.588 279.391C257.558 279.392 257.53 279.406 257.509 279.43C257.488 279.455 257.476 279.488 257.476 279.522V281.042L256.325 279.685C256.315 279.672 256.303 279.663 256.289 279.656C256.275 279.649 256.261 279.646 256.246 279.646C256.231 279.646 256.216 279.649 256.203 279.656C256.189 279.663 256.177 279.672 256.166 279.685C256.146 279.709 256.134 279.743 256.134 279.778C256.134 279.812 256.146 279.846 256.166 279.871L257.319 281.218H256.021C255.991 281.218 255.963 281.232 255.942 281.257C255.922 281.281 255.91 281.314 255.909 281.349C255.909 281.384 255.921 281.417 255.942 281.441C255.963 281.466 255.991 281.48 256.021 281.48H257.319L256.166 282.83C256.146 282.854 256.134 282.888 256.134 282.923C256.134 282.957 256.146 282.991 256.166 283.016C256.188 283.039 256.216 283.052 256.246 283.052C256.275 283.052 256.304 283.039 256.325 283.016L257.476 281.666V283.183C257.476 283.218 257.487 283.251 257.508 283.276C257.529 283.301 257.558 283.314 257.588 283.314C257.617 283.314 257.646 283.301 257.667 283.276C257.688 283.251 257.7 283.218 257.7 283.183V281.666L258.852 283.016C258.874 283.039 258.902 283.052 258.932 283.052C258.961 283.052 258.989 283.039 259.011 283.016C259.032 282.991 259.043 282.957 259.043 282.923C259.043 282.888 259.032 282.854 259.011 282.83L257.858 281.48H259.154C259.184 281.48 259.212 281.466 259.233 281.441C259.254 281.417 259.266 281.384 259.266 281.349C259.264 281.315 259.252 281.284 259.231 281.261C259.21 281.238 259.183 281.226 259.154 281.226Z" fill="#2477A6"/>
<path d="M263.854 281.226H262.558L263.711 279.878C263.732 279.854 263.743 279.82 263.743 279.785C263.743 279.751 263.732 279.717 263.711 279.692C263.701 279.68 263.688 279.67 263.675 279.664C263.661 279.657 263.646 279.654 263.632 279.654C263.617 279.654 263.602 279.657 263.589 279.664C263.575 279.67 263.563 279.68 263.552 279.692L262.399 281.042V279.522C262.399 279.487 262.388 279.454 262.367 279.429C262.346 279.405 262.317 279.391 262.288 279.391C262.258 279.392 262.23 279.406 262.209 279.43C262.188 279.455 262.176 279.488 262.176 279.522V281.042L261.025 279.685C261.015 279.672 261.003 279.663 260.989 279.656C260.975 279.649 260.961 279.646 260.946 279.646C260.931 279.646 260.916 279.649 260.903 279.656C260.889 279.663 260.877 279.672 260.866 279.685C260.846 279.709 260.834 279.743 260.834 279.778C260.834 279.812 260.846 279.846 260.866 279.871L262.019 281.218H260.721C260.691 281.218 260.663 281.232 260.642 281.257C260.622 281.281 260.61 281.314 260.609 281.349C260.609 281.384 260.621 281.417 260.642 281.441C260.663 281.466 260.691 281.48 260.721 281.48H262.019L260.866 282.83C260.846 282.854 260.834 282.888 260.834 282.923C260.834 282.957 260.846 282.991 260.866 283.016C260.888 283.039 260.916 283.052 260.946 283.052C260.975 283.052 261.004 283.039 261.025 283.016L262.176 281.666V283.183C262.176 283.218 262.187 283.251 262.208 283.276C262.229 283.301 262.258 283.314 262.288 283.314C262.317 283.314 262.346 283.301 262.367 283.276C262.388 283.251 262.399 283.218 262.399 283.183V281.666L263.552 283.016C263.574 283.039 263.602 283.052 263.632 283.052C263.661 283.052 263.689 283.039 263.711 283.016C263.732 282.991 263.743 282.957 263.743 282.923C263.743 282.888 263.732 282.854 263.711 282.83L262.558 281.48H263.854C263.884 281.48 263.912 281.466 263.933 281.441C263.954 281.417 263.966 281.384 263.966 281.349C263.964 281.315 263.952 281.284 263.931 281.261C263.91 281.238 263.883 281.226 263.854 281.226Z" fill="#2477A6"/>
<path d="M268.554 281.226H267.258L268.411 279.878C268.432 279.854 268.443 279.82 268.443 279.785C268.443 279.751 268.432 279.717 268.411 279.692C268.401 279.68 268.388 279.67 268.375 279.664C268.361 279.657 268.346 279.654 268.332 279.654C268.317 279.654 268.302 279.657 268.289 279.664C268.275 279.67 268.263 279.68 268.252 279.692L267.1 281.042V279.522C267.1 279.487 267.088 279.454 267.067 279.429C267.046 279.405 267.017 279.391 266.988 279.391C266.958 279.392 266.93 279.406 266.909 279.43C266.888 279.455 266.876 279.488 266.876 279.522V281.042L265.725 279.685C265.715 279.672 265.703 279.663 265.689 279.656C265.675 279.649 265.661 279.646 265.646 279.646C265.631 279.646 265.616 279.649 265.603 279.656C265.589 279.663 265.577 279.672 265.566 279.685C265.546 279.709 265.534 279.743 265.534 279.778C265.534 279.812 265.546 279.846 265.566 279.871L266.719 281.218H265.421C265.391 281.218 265.363 281.232 265.342 281.257C265.322 281.281 265.31 281.314 265.309 281.349C265.309 281.384 265.321 281.417 265.342 281.441C265.363 281.466 265.391 281.48 265.421 281.48H266.719L265.566 282.83C265.546 282.854 265.534 282.888 265.534 282.923C265.534 282.957 265.546 282.991 265.566 283.016C265.588 283.039 265.616 283.052 265.646 283.052C265.675 283.052 265.704 283.039 265.725 283.016L266.876 281.666V283.183C266.876 283.218 266.887 283.251 266.908 283.276C266.929 283.301 266.958 283.314 266.988 283.314C267.017 283.314 267.046 283.301 267.067 283.276C267.088 283.251 267.1 283.218 267.1 283.183V281.666L268.252 283.016C268.274 283.039 268.302 283.052 268.332 283.052C268.361 283.052 268.389 283.039 268.411 283.016C268.432 282.991 268.443 282.957 268.443 282.923C268.443 282.888 268.432 282.854 268.411 282.83L267.258 281.48H268.554C268.584 281.48 268.612 281.466 268.633 281.441C268.654 281.417 268.666 281.384 268.666 281.349C268.664 281.315 268.652 281.284 268.631 281.261C268.61 281.238 268.583 281.226 268.554 281.226Z" fill="#2477A6"/>
<path d="M273.254 281.226H271.958L273.111 279.878C273.132 279.854 273.143 279.82 273.143 279.785C273.143 279.751 273.132 279.717 273.111 279.692C273.101 279.68 273.088 279.67 273.075 279.664C273.061 279.657 273.046 279.654 273.032 279.654C273.017 279.654 273.002 279.657 272.989 279.664C272.975 279.67 272.963 279.68 272.952 279.692L271.8 281.042V279.522C271.8 279.487 271.788 279.454 271.767 279.429C271.746 279.405 271.717 279.391 271.688 279.391C271.658 279.392 271.63 279.406 271.609 279.43C271.588 279.455 271.576 279.488 271.576 279.522V281.042L270.425 279.685C270.415 279.672 270.403 279.663 270.389 279.656C270.375 279.649 270.361 279.646 270.346 279.646C270.331 279.646 270.316 279.649 270.303 279.656C270.289 279.663 270.277 279.672 270.266 279.685C270.246 279.709 270.234 279.743 270.234 279.778C270.234 279.812 270.246 279.846 270.266 279.871L271.419 281.218H270.121C270.091 281.218 270.063 281.232 270.042 281.257C270.022 281.281 270.01 281.314 270.009 281.349C270.009 281.384 270.021 281.417 270.042 281.441C270.063 281.466 270.091 281.48 270.121 281.48H271.419L270.266 282.83C270.246 282.854 270.234 282.888 270.234 282.923C270.234 282.957 270.246 282.991 270.266 283.016C270.288 283.039 270.316 283.052 270.346 283.052C270.375 283.052 270.404 283.039 270.425 283.016L271.576 281.666V283.183C271.576 283.218 271.587 283.251 271.608 283.276C271.629 283.301 271.658 283.314 271.688 283.314C271.717 283.314 271.746 283.301 271.767 283.276C271.788 283.251 271.8 283.218 271.8 283.183V281.666L272.952 283.016C272.974 283.039 273.002 283.052 273.032 283.052C273.061 283.052 273.089 283.039 273.111 283.016C273.132 282.991 273.143 282.957 273.143 282.923C273.143 282.888 273.132 282.854 273.111 282.83L271.958 281.48H273.254C273.284 281.48 273.312 281.466 273.333 281.441C273.354 281.417 273.366 281.384 273.366 281.349C273.364 281.315 273.352 281.284 273.331 281.261C273.31 281.238 273.283 281.226 273.254 281.226Z" fill="#2477A6"/>
<path d="M277.954 281.226H276.658L277.811 279.878C277.832 279.854 277.843 279.82 277.843 279.785C277.843 279.751 277.832 279.717 277.811 279.692C277.801 279.68 277.788 279.67 277.775 279.664C277.761 279.657 277.746 279.654 277.732 279.654C277.717 279.654 277.702 279.657 277.689 279.664C277.675 279.67 277.663 279.68 277.652 279.692L276.5 281.042V279.522C276.5 279.487 276.488 279.454 276.467 279.429C276.446 279.405 276.417 279.391 276.388 279.391C276.358 279.392 276.33 279.406 276.309 279.43C276.288 279.455 276.276 279.488 276.276 279.522V281.042L275.125 279.685C275.115 279.672 275.103 279.663 275.089 279.656C275.075 279.649 275.061 279.646 275.046 279.646C275.031 279.646 275.016 279.649 275.003 279.656C274.989 279.663 274.977 279.672 274.966 279.685C274.946 279.709 274.934 279.743 274.934 279.778C274.934 279.812 274.946 279.846 274.966 279.871L276.119 281.218H274.821C274.791 281.218 274.763 281.232 274.742 281.257C274.722 281.281 274.71 281.314 274.709 281.349C274.709 281.384 274.721 281.417 274.742 281.441C274.763 281.466 274.791 281.48 274.821 281.48H276.119L274.966 282.83C274.946 282.854 274.934 282.888 274.934 282.923C274.934 282.957 274.946 282.991 274.966 283.016C274.988 283.039 275.016 283.052 275.046 283.052C275.075 283.052 275.104 283.039 275.125 283.016L276.276 281.666V283.183C276.276 283.218 276.287 283.251 276.308 283.276C276.329 283.301 276.358 283.314 276.388 283.314C276.417 283.314 276.446 283.301 276.467 283.276C276.488 283.251 276.5 283.218 276.5 283.183V281.666L277.652 283.016C277.674 283.039 277.702 283.052 277.732 283.052C277.761 283.052 277.789 283.039 277.811 283.016C277.832 282.991 277.843 282.957 277.843 282.923C277.843 282.888 277.832 282.854 277.811 282.83L276.658 281.48H277.954C277.984 281.48 278.012 281.466 278.033 281.441C278.054 281.417 278.066 281.384 278.066 281.349C278.064 281.315 278.052 281.284 278.031 281.261C278.01 281.238 277.983 281.226 277.954 281.226Z" fill="#2477A6"/>
</g>
<g filter="url(#filter0_d)">
<rect width="52.7306" height="56.3098" transform="matrix(0.989512 0.144453 -0.330499 0.943806 316.61 110)" fill="#2477A6" fill-opacity="0.4" shape-rendering="crispEdges"/>
</g>
<g filter="url(#filter1_d)">
<rect width="52.73" height="63.5089" transform="matrix(0.989576 -0.144011 0.315767 0.948837 122 113.594)" fill="#2477A6" fill-opacity="0.4" shape-rendering="crispEdges"/>
</g>
<g filter="url(#filter2_d)">
<line x1="193.998" y1="139.845" x2="286.995" y2="139.155" stroke="#2477A6" stroke-opacity="0.4" shape-rendering="crispEdges"/>
</g>
<defs>
<filter id="filter0_d" x="294" y="110" width="78.7879" height="68.7626" filterUnits="userSpaceOnUse" color-interpolation-filters="sRGB">
<feFlood flood-opacity="0" result="BackgroundImageFix"/>
<feColorMatrix in="SourceAlpha" type="matrix" values="0 0 0 0 0 0 0 0 0 0 0 0 0 0 0 0 0 0 127 0" result="hardAlpha"/>
<feOffset dy="4"/>
<feGaussianBlur stdDeviation="2"/>
<feComposite in2="hardAlpha" operator="out"/>
<feColorMatrix type="matrix" values="0 0 0 0 0 0 0 0 0 0 0 0 0 0 0 0 0 0 0.25 0"/>
<feBlend mode="normal" in2="BackgroundImageFix" result="effect1_dropShadow"/>
<feBlend mode="normal" in="SourceGraphic" in2="effect1_dropShadow" result="shape"/>
</filter>
<filter id="filter1_d" x="118" y="106" width="80.2344" height="75.8533" filterUnits="userSpaceOnUse" color-interpolation-filters="sRGB">
<feFlood flood-opacity="0" result="BackgroundImageFix"/>
<feColorMatrix in="SourceAlpha" type="matrix" values="0 0 0 0 0 0 0 0 0 0 0 0 0 0 0 0 0 0 127 0" result="hardAlpha"/>
<feOffset dy="4"/>
<feGaussianBlur stdDeviation="2"/>
<feComposite in2="hardAlpha" operator="out"/>
<feColorMatrix type="matrix" values="0 0 0 0 0 0 0 0 0 0 0 0 0 0 0 0 0 0 0.25 0"/>
<feBlend mode="normal" in2="BackgroundImageFix" result="effect1_dropShadow"/>
<feBlend mode="normal" in="SourceGraphic" in2="effect1_dropShadow" result="shape"/>
</filter>
<filter id="filter2_d" x="189.994" y="138.655" width="101.005" height="9.69014" filterUnits="userSpaceOnUse" color-interpolation-filters="sRGB">
<feFlood flood-opacity="0" result="BackgroundImageFix"/>
<feColorMatrix in="SourceAlpha" type="matrix" values="0 0 0 0 0 0 0 0 0 0 0 0 0 0 0 0 0 0 127 0" result="hardAlpha"/>
<feOffset dy="4"/>
<feGaussianBlur stdDeviation="2"/>
<feComposite in2="hardAlpha" operator="out"/>
<feColorMatrix type="matrix" values="0 0 0 0 0 0 0 0 0 0 0 0 0 0 0 0 0 0 0.25 0"/>
<feBlend mode="normal" in2="BackgroundImageFix" result="effect1_dropShadow"/>
<feBlend mode="normal" in="SourceGraphic" in2="effect1_dropShadow" result="shape"/>
</filter>
<linearGradient id="paint0_linear" x1="239" y1="0" x2="239" y2="439" gradientUnits="userSpaceOnUse">
<stop stop-color="#2D9CDB"/>
<stop offset="1" stop-color="#208AC6"/>
</linearGradient>
<clipPath id="clip0">
<rect width="261" height="211" fill="white" transform="translate(108 181)"/>
</clipPath>
</defs>
</svg>
