<svg width="150" height="93" viewBox="0 0 150 93" fill="none" xmlns="http://www.w3.org/2000/svg">
<path d="M150 46.2066C150 81.45 116.421 93 75 93C33.5786 93 0 81.45 0 46.2066C0 10.9631 33.5786 0 75 0C116.421 0 150 10.9631 150 46.2066Z" fill="#2D9CDB"/>
<path d="M72.2129 44.188L72.4245 43.6668C73.216 41.7172 73.138 39.9713 72.1903 38.4289C71.2619 36.8943 69.6942 35.6884 67.4871 34.8112L65.8318 34.1534C64.3411 33.5609 63.2735 33.3384 62.629 33.4858C61.9846 33.6332 61.4547 34.2184 61.0393 35.2415C60.7111 35.8284 60.5156 36.1991 60.4529 36.3535L57.9876 41.5946L57.7878 42.0869L57.1129 43.5L56.913 43.9922L56.6959 44.4439C56.3902 45.1967 56.355 45.7544 56.59 46.1168C56.8445 46.4869 57.4654 46.8682 58.4528 47.2606L59.6434 47.7338L59.8875 47.7972L60.1198 47.8895L60.8576 48.1491L62.3567 48.6103C64.3702 49.4105 66.3155 49.3542 68.1926 48.4413C70.089 47.5361 71.4291 46.1183 72.2129 44.188ZM48.3057 62.8658C47.9766 63.6766 48.0146 64.3306 48.4197 64.8279C48.8443 65.3329 50.0923 65.997 52.1639 66.8203L52.7157 67.0396C56.0457 68.363 58.7183 68.7302 60.7337 68.1413C63.2617 67.3974 65.0469 65.7418 66.0893 63.1745L66.3244 62.5954C67.2021 60.4334 67.1407 58.425 66.14 56.5702C65.1665 54.7038 63.3052 53.2242 60.556 52.1317L58.0875 51.1506C57.4832 50.9777 56.8616 50.7643 56.2227 50.5104C54.8675 49.9718 53.7862 50.6966 52.979 52.6848C52.6037 53.3875 52.3808 53.8258 52.3103 53.9995L50.2911 58.3083L50.0677 58.8584L48.7407 61.7945L48.3057 62.8658ZM78.4718 45.8012C77.2257 48.8704 75.0353 50.9702 71.9007 52.1007C70.3781 52.6389 69.6011 52.9466 69.5698 53.0238C69.5384 53.101 70.0104 53.849 70.9858 55.2679C73.3029 58.5874 73.6778 62.1775 72.1103 66.0381C70.5507 69.8794 67.6534 72.2251 63.4185 73.0753C60.0335 73.77 55.4273 72.9594 49.5998 70.6435L48.9028 70.3665L48.2176 70.0605L47.5206 69.7835C43.1839 68.06 40.565 66.8959 39.6638 66.2912C38.7704 65.6671 38.4335 65.0849 38.6529 64.5444L38.841 64.0811C39.0291 63.6178 39.6487 62.9225 40.6998 61.9952C41.2843 61.3308 41.903 60.3885 42.5557 59.1684C45.159 54.3071 47.7852 48.6143 50.4342 42.0899L52.2487 38.0361L52.8476 36.7272L53.6995 34.712C54.4362 32.8975 54.865 31.4538 54.9858 30.3809L55.0833 29.31C55.1359 28.7929 55.2445 28.3317 55.4091 27.9263C55.699 27.2121 56.4216 26.9276 57.5768 27.0728C58.732 27.2181 60.81 27.887 63.8109 29.0796L64.4906 29.3161C64.9631 29.4815 65.4316 29.6565 65.8963 29.8412L68.7367 30.9028C77.7974 34.5037 81.0425 39.4698 78.4718 45.8012Z" fill="white"/>
<path d="M74.2608 38.6596C75.5301 35.5547 77.1696 32.8415 79.1794 30.52C83.2532 25.8537 88.102 23.3946 93.7257 23.1427C96.7238 23.0005 99.9484 23.6076 103.4 24.9641C106.87 26.3283 109.375 27.8053 110.915 29.3952C111.601 30.0903 112.068 30.9678 112.316 32.0277C112.591 33.0759 112.565 34.0061 112.239 34.818C111.921 35.6107 111.448 36.1745 110.819 36.5095C110.198 36.8252 109.762 36.9334 109.51 36.8344C109.258 36.7353 108.178 35.7065 106.271 33.748C104.375 31.8164 102.525 30.4963 100.722 29.7875L100.635 29.7532C96.9508 28.3052 93.4564 28.3979 90.1515 30.0312C88.2507 30.9629 86.5321 32.3916 84.9957 34.3171C83.4514 36.2619 82.2038 38.3905 81.2529 40.7028C78.3494 47.9333 78.8033 53.428 82.6145 57.1868C83.8319 58.404 85.3616 59.3746 87.2036 60.0986C89.0456 60.8226 90.8335 60.8986 92.5673 60.3265C94.3283 59.7428 95.6513 58.3489 96.5363 56.145C97.1418 54.637 97.0164 52.797 96.16 50.6249C95.8965 49.9393 95.8152 49.4709 95.9161 49.2195C96.2266 48.4462 97.3804 48.452 99.3775 49.237C101.394 50.0296 102.912 50.8613 103.932 51.7322C104.952 52.6031 105.306 53.4252 104.996 54.1985C104.305 55.9191 103.082 58.2367 101.328 61.1511C99.5937 64.0732 98.4044 65.777 97.7604 66.2626C96.6936 67.0744 95.1809 67.4311 93.2224 67.3328C89.7862 67.1686 87.0598 66.6902 85.0433 65.8976L83.9963 65.4861C81.4951 64.5029 79.3469 63.1437 77.5518 61.4085C73.8453 57.7804 72.0608 53.3072 72.1983 47.989C72.2769 44.998 72.8091 42.2749 73.795 39.8196L74.2608 38.6596Z" fill="white"/>
</svg>
